G04 #@! TF.FileFunction,Paste,Bot*
%FSLAX46Y46*%
G04 Gerber Fmt 4.6, Leading zero omitted, Abs format (unit mm)*
G04 Created by KiCad (PCBNEW 4.0.7) date 02/04/18 23:39:56*
%MOMM*%
%LPD*%
G01*
G04 APERTURE LIST*
%ADD10C,0.100000*%
%ADD11R,1.348740X1.348740*%
%ADD12R,0.720000X0.675000*%
%ADD13R,0.540000X0.360000*%
%ADD14R,0.675000X0.720000*%
%ADD15R,0.450000X0.540000*%
%ADD16R,0.540000X0.450000*%
%ADD17R,0.360000X0.540000*%
%ADD18R,0.225000X0.630000*%
%ADD19R,0.714000X0.498000*%
%ADD20R,0.720000X0.810000*%
%ADD21R,1.080000X0.360000*%
%ADD22R,0.540000X0.495000*%
%ADD23R,1.350000X0.900000*%
%ADD24R,1.620000X0.900000*%
%ADD25R,1.656000X1.980000*%
G04 APERTURE END LIST*
D10*
D11*
X14300000Y3252500D03*
X14300000Y1347500D03*
D12*
X16250000Y6100000D03*
X14750000Y6100000D03*
D13*
X4500000Y2750000D03*
X4500000Y1850000D03*
D14*
X16300000Y4150000D03*
X16300000Y2650000D03*
D15*
X10300000Y10850000D03*
X10300000Y11950000D03*
D16*
X8450000Y9000000D03*
X7350000Y9000000D03*
X14950000Y7200000D03*
X13850000Y7200000D03*
D12*
X13550000Y10600000D03*
X15050000Y10600000D03*
D13*
X10400000Y3850000D03*
X10400000Y4750000D03*
X16100000Y8050000D03*
X16100000Y7150000D03*
D17*
X9050000Y6000000D03*
X9950000Y6000000D03*
D18*
X17250000Y10400000D03*
X17750000Y10400000D03*
X18250000Y10400000D03*
X18750000Y10400000D03*
X18750000Y7600000D03*
X18250000Y7600000D03*
X17750000Y7600000D03*
X17250000Y7600000D03*
D19*
X18595000Y8585000D03*
X17405000Y8585000D03*
X18595000Y9415000D03*
X17405000Y9415000D03*
D20*
X11550000Y6100000D03*
X13450000Y6100000D03*
X12500000Y4100000D03*
D13*
X11500000Y8050000D03*
X11500000Y7150000D03*
D17*
X16350000Y1400000D03*
X17250000Y1400000D03*
D21*
X10750000Y1450000D03*
X10750000Y2100000D03*
X10750000Y2750000D03*
X12450000Y2750000D03*
X12450000Y2100000D03*
X12450000Y1450000D03*
D22*
X9300000Y4700000D03*
X9300000Y3950000D03*
X9300000Y3200000D03*
X9300000Y2450000D03*
X9300000Y1700000D03*
X9300000Y950000D03*
X7300000Y950000D03*
X7300000Y1700000D03*
X7300000Y2450000D03*
X7300000Y3200000D03*
X7300000Y3950000D03*
X7300000Y4700000D03*
D10*
G36*
X22449500Y3780000D02*
X21684500Y3180000D01*
X21684500Y5220000D01*
X22449500Y4620000D01*
X22449500Y3780000D01*
X22449500Y3780000D01*
G37*
D23*
X17920000Y2700000D03*
D24*
X18066500Y4200000D03*
D23*
X17920000Y5700000D03*
D25*
X20733500Y4200000D03*
D10*
G36*
X18873800Y4525000D02*
X19773800Y5225000D01*
X19773800Y3175000D01*
X18873800Y3875000D01*
X18873800Y4525000D01*
X18873800Y4525000D01*
G37*
M02*
