G04 #@! TF.FileFunction,Soldermask,Bot*
%FSLAX46Y46*%
G04 Gerber Fmt 4.6, Leading zero omitted, Abs format (unit mm)*
G04 Created by KiCad (PCBNEW 4.0.7) date 02/04/18 23:39:56*
%MOMM*%
%LPD*%
G01*
G04 APERTURE LIST*
%ADD10C,0.100000*%
G04 APERTURE END LIST*
D10*
G36*
X15129300Y518200D02*
X13470700Y518200D01*
X13470700Y4081800D01*
X15129300Y4081800D01*
X15129300Y518200D01*
X15129300Y518200D01*
G37*
G36*
X9680000Y595000D02*
X8920000Y595000D01*
X8920000Y5055000D01*
X9680000Y5055000D01*
X9680000Y595000D01*
X9680000Y595000D01*
G37*
G36*
X7680000Y595000D02*
X6920000Y595000D01*
X6920000Y5055000D01*
X7680000Y5055000D01*
X7680000Y595000D01*
X7680000Y595000D01*
G37*
G36*
X17530000Y1020000D02*
X16970000Y1020000D01*
X16970000Y1780000D01*
X17530000Y1780000D01*
X17530000Y1020000D01*
X17530000Y1020000D01*
G37*
G36*
X16630000Y1020000D02*
X16070000Y1020000D01*
X16070000Y1780000D01*
X16630000Y1780000D01*
X16630000Y1020000D01*
X16630000Y1020000D01*
G37*
G36*
X13130000Y1170000D02*
X11770000Y1170000D01*
X11770000Y3030000D01*
X13130000Y3030000D01*
X13130000Y1170000D01*
X13130000Y1170000D01*
G37*
G36*
X11430000Y1170000D02*
X10070000Y1170000D01*
X10070000Y3030000D01*
X11430000Y3030000D01*
X11430000Y1170000D01*
X11430000Y1170000D01*
G37*
G36*
X4880000Y1570000D02*
X4120000Y1570000D01*
X4120000Y2130000D01*
X4880000Y2130000D01*
X4880000Y1570000D01*
X4880000Y1570000D01*
G37*
G36*
X18750000Y2120000D02*
X17090000Y2120000D01*
X17090000Y3280000D01*
X18750000Y3280000D01*
X18750000Y2120000D01*
X18750000Y2120000D01*
G37*
G36*
X16755000Y2170000D02*
X15845000Y2170000D01*
X15845000Y3130000D01*
X16755000Y3130000D01*
X16755000Y2170000D01*
X16755000Y2170000D01*
G37*
G36*
X4880000Y2470000D02*
X4120000Y2470000D01*
X4120000Y3030000D01*
X4880000Y3030000D01*
X4880000Y2470000D01*
X4880000Y2470000D01*
G37*
G36*
X21625904Y5409285D02*
X21665973Y5388755D01*
X21718173Y5380000D01*
X21738650Y5380000D01*
X21739835Y5371665D01*
X21758337Y5330620D01*
X21801231Y5285525D01*
X22572000Y4741452D01*
X22572000Y3658548D01*
X21801231Y3114475D01*
X21768467Y3083594D01*
X21745604Y3044808D01*
X21740685Y3020000D01*
X21718173Y3020000D01*
X21673598Y3013665D01*
X21625905Y2990716D01*
X21562000Y2945606D01*
X21562000Y2945607D01*
X21543163Y2932310D01*
X21537163Y2945620D01*
X21507959Y2979886D01*
X21470364Y3004659D01*
X21427357Y3017978D01*
X21402000Y3020000D01*
X20063800Y3020000D01*
X20019225Y3013665D01*
X19978180Y2995163D01*
X19943914Y2965959D01*
X19922408Y2933322D01*
X19839901Y2991077D01*
X19799751Y3011450D01*
X19748147Y3020000D01*
X19728135Y3020000D01*
X19727165Y3026828D01*
X19708663Y3067873D01*
X19665254Y3113330D01*
X18982758Y3591077D01*
X18942608Y3611450D01*
X18891004Y3620000D01*
X17086500Y3620000D01*
X17086500Y4780000D01*
X18891004Y4780000D01*
X18935579Y4786335D01*
X18982758Y4808923D01*
X19665254Y5286670D01*
X19698139Y5317421D01*
X19721154Y5356117D01*
X19725938Y5380000D01*
X19748147Y5380000D01*
X19792722Y5386335D01*
X19839901Y5408923D01*
X19922929Y5467043D01*
X19928637Y5454380D01*
X19957841Y5420114D01*
X19995436Y5395341D01*
X20038443Y5382022D01*
X20063800Y5380000D01*
X21402000Y5380000D01*
X21446575Y5386335D01*
X21487620Y5404837D01*
X21521886Y5434041D01*
X21543775Y5467259D01*
X21625904Y5409285D01*
X21625904Y5409285D01*
G37*
G36*
X10780000Y3570000D02*
X10020000Y3570000D01*
X10020000Y4130000D01*
X10780000Y4130000D01*
X10780000Y3570000D01*
X10780000Y3570000D01*
G37*
G36*
X12980000Y3570000D02*
X12020000Y3570000D01*
X12020000Y4630000D01*
X12980000Y4630000D01*
X12980000Y3570000D01*
X12980000Y3570000D01*
G37*
G36*
X16755000Y3670000D02*
X15845000Y3670000D01*
X15845000Y4630000D01*
X16755000Y4630000D01*
X16755000Y3670000D01*
X16755000Y3670000D01*
G37*
G36*
X10780000Y4470000D02*
X10020000Y4470000D01*
X10020000Y5030000D01*
X10780000Y5030000D01*
X10780000Y4470000D01*
X10780000Y4470000D01*
G37*
G36*
X18750000Y5120000D02*
X17090000Y5120000D01*
X17090000Y6280000D01*
X18750000Y6280000D01*
X18750000Y5120000D01*
X18750000Y5120000D01*
G37*
G36*
X14230000Y6813411D02*
X14215959Y6829886D01*
X14178364Y6854659D01*
X14135357Y6867978D01*
X14110000Y6870000D01*
X14090000Y6870000D01*
X14045425Y6863665D01*
X14004380Y6845163D01*
X13970114Y6815959D01*
X13945341Y6778364D01*
X13932022Y6735357D01*
X13930000Y6710000D01*
X13930000Y5570000D01*
X12970000Y5570000D01*
X12970000Y6630000D01*
X13310000Y6630000D01*
X13354575Y6636335D01*
X13395620Y6654837D01*
X13429886Y6684041D01*
X13454659Y6721636D01*
X13467978Y6764643D01*
X13470000Y6790000D01*
X13470000Y7530000D01*
X14230000Y7530000D01*
X14230000Y6813411D01*
X14230000Y6813411D01*
G37*
G36*
X11880000Y6790000D02*
X11886335Y6745425D01*
X11904837Y6704380D01*
X11934041Y6670114D01*
X11971636Y6645341D01*
X12014643Y6632022D01*
X12030000Y6630797D01*
X12030000Y5570000D01*
X11070000Y5570000D01*
X11070000Y6675615D01*
X11079886Y6684041D01*
X11104659Y6721636D01*
X11117978Y6764643D01*
X11120000Y6790000D01*
X11120000Y7430000D01*
X11880000Y7430000D01*
X11880000Y6790000D01*
X11880000Y6790000D01*
G37*
G36*
X9330000Y5620000D02*
X8770000Y5620000D01*
X8770000Y6380000D01*
X9330000Y6380000D01*
X9330000Y5620000D01*
X9330000Y5620000D01*
G37*
G36*
X10230000Y5620000D02*
X9670000Y5620000D01*
X9670000Y6380000D01*
X10230000Y6380000D01*
X10230000Y5620000D01*
X10230000Y5620000D01*
G37*
G36*
X15330000Y6856712D02*
X15304380Y6845163D01*
X15270114Y6815959D01*
X15245341Y6778364D01*
X15232022Y6735357D01*
X15230000Y6710000D01*
X15230000Y5645000D01*
X14270000Y5645000D01*
X14270000Y6611589D01*
X14284041Y6595114D01*
X14321636Y6570341D01*
X14364643Y6557022D01*
X14390000Y6555000D01*
X14410000Y6555000D01*
X14454575Y6561335D01*
X14495620Y6579837D01*
X14529886Y6609041D01*
X14554659Y6646636D01*
X14567978Y6689643D01*
X14570000Y6715000D01*
X14570000Y7530000D01*
X15330000Y7530000D01*
X15330000Y6856712D01*
X15330000Y6856712D01*
G37*
G36*
X16480000Y6715000D02*
X16486335Y6670425D01*
X16504837Y6629380D01*
X16534041Y6595114D01*
X16571636Y6570341D01*
X16614643Y6557022D01*
X16640000Y6555000D01*
X16730000Y6555000D01*
X16730000Y5645000D01*
X15770000Y5645000D01*
X15770000Y6710000D01*
X15763665Y6754575D01*
X15745163Y6795620D01*
X15720000Y6825145D01*
X15720000Y7430000D01*
X16480000Y7430000D01*
X16480000Y6715000D01*
X16480000Y6715000D01*
G37*
G36*
X18955000Y10070000D02*
X18961335Y10025425D01*
X18979837Y9984380D01*
X19009041Y9950114D01*
X19046636Y9925341D01*
X19089643Y9912022D01*
X19115000Y9910000D01*
X19270000Y9910000D01*
X19270000Y8090000D01*
X19115000Y8090000D01*
X19070425Y8083665D01*
X19029380Y8065163D01*
X18995114Y8035959D01*
X18970341Y7998364D01*
X18957022Y7955357D01*
X18955000Y7930000D01*
X18955000Y7170000D01*
X17045000Y7170000D01*
X17045000Y7930000D01*
X17038665Y7974575D01*
X17020163Y8015620D01*
X16990959Y8049886D01*
X16953364Y8074659D01*
X16910357Y8087978D01*
X16885000Y8090000D01*
X16640000Y8090000D01*
X16595425Y8083665D01*
X16554380Y8065163D01*
X16520114Y8035959D01*
X16495341Y7998364D01*
X16482022Y7955357D01*
X16480000Y7930000D01*
X16480000Y7770000D01*
X15720000Y7770000D01*
X15720000Y8330000D01*
X16570000Y8330000D01*
X16614575Y8336335D01*
X16655620Y8354837D01*
X16689886Y8384041D01*
X16714659Y8421636D01*
X16727978Y8464643D01*
X16730000Y8490000D01*
X16730000Y9910000D01*
X16885000Y9910000D01*
X16929575Y9916335D01*
X16970620Y9934837D01*
X17004886Y9964041D01*
X17029659Y10001636D01*
X17042978Y10044643D01*
X17045000Y10070000D01*
X17045000Y10830000D01*
X18955000Y10830000D01*
X18955000Y10070000D01*
X18955000Y10070000D01*
G37*
G36*
X11880000Y7770000D02*
X11120000Y7770000D01*
X11120000Y8330000D01*
X11880000Y8330000D01*
X11880000Y7770000D01*
X11880000Y7770000D01*
G37*
G36*
X7730000Y8670000D02*
X6970000Y8670000D01*
X6970000Y9330000D01*
X7730000Y9330000D01*
X7730000Y8670000D01*
X7730000Y8670000D01*
G37*
G36*
X8830000Y8670000D02*
X8070000Y8670000D01*
X8070000Y9330000D01*
X8830000Y9330000D01*
X8830000Y8670000D01*
X8830000Y8670000D01*
G37*
G36*
X14030000Y10145000D02*
X13070000Y10145000D01*
X13070000Y11055000D01*
X14030000Y11055000D01*
X14030000Y10145000D01*
X14030000Y10145000D01*
G37*
G36*
X15530000Y10145000D02*
X14570000Y10145000D01*
X14570000Y11055000D01*
X15530000Y11055000D01*
X15530000Y10145000D01*
X15530000Y10145000D01*
G37*
G36*
X10630000Y10470000D02*
X9970000Y10470000D01*
X9970000Y11230000D01*
X10630000Y11230000D01*
X10630000Y10470000D01*
X10630000Y10470000D01*
G37*
G36*
X10630000Y11570000D02*
X9970000Y11570000D01*
X9970000Y12330000D01*
X10630000Y12330000D01*
X10630000Y11570000D01*
X10630000Y11570000D01*
G37*
G36*
X2639478Y16878489D02*
X3077481Y16788579D01*
X3489672Y16615310D01*
X3860363Y16365276D01*
X4175429Y16048002D01*
X4181617Y16038689D01*
X4211561Y16005067D01*
X4249686Y15981118D01*
X4292973Y15968739D01*
X4337996Y15968910D01*
X4381188Y15981617D01*
X4419130Y16005854D01*
X4448818Y16039701D01*
X4471388Y16093967D01*
X4505018Y16252187D01*
X4569139Y16401791D01*
X4661101Y16536099D01*
X4777397Y16649984D01*
X4913605Y16739116D01*
X5064519Y16800089D01*
X5224411Y16830590D01*
X5387179Y16829454D01*
X5546628Y16796723D01*
X5696680Y16733648D01*
X5831626Y16642626D01*
X5946322Y16527125D01*
X6036398Y16391551D01*
X6098426Y16241060D01*
X6129823Y16082491D01*
X6129823Y16082464D01*
X6130036Y16081386D01*
X6127440Y15895470D01*
X6127197Y15894402D01*
X6127197Y15894372D01*
X6091383Y15736739D01*
X6025179Y15588041D01*
X5931351Y15455032D01*
X5813479Y15342784D01*
X5676041Y15255564D01*
X5524283Y15196700D01*
X5363986Y15168436D01*
X5201249Y15171844D01*
X5042272Y15206797D01*
X4893113Y15271964D01*
X4868348Y15289176D01*
X4828130Y15309415D01*
X4783866Y15317647D01*
X4739061Y15313222D01*
X4697263Y15296490D01*
X4661781Y15268775D01*
X4635425Y15232273D01*
X4620282Y15189874D01*
X4620080Y15126716D01*
X4679886Y14824671D01*
X4679886Y14824639D01*
X4680098Y14823566D01*
X4672967Y14312858D01*
X4672724Y14311790D01*
X4672724Y14311759D01*
X4573911Y13876834D01*
X4392047Y13468359D01*
X4134307Y13102990D01*
X3810501Y12794635D01*
X3432981Y12555053D01*
X3016104Y12393356D01*
X2575768Y12315714D01*
X2128734Y12325077D01*
X1692028Y12421094D01*
X1282295Y12600101D01*
X915130Y12855288D01*
X604530Y13176924D01*
X362312Y13552773D01*
X197712Y13968506D01*
X116996Y14408290D01*
X123239Y14855375D01*
X216203Y15292741D01*
X392349Y15703718D01*
X644962Y16072651D01*
X964428Y16385495D01*
X1338571Y16630327D01*
X1753143Y16797825D01*
X2192357Y16881609D01*
X2639478Y16878489D01*
X2639478Y16878489D01*
G37*
G36*
X20639478Y16878489D02*
X21077481Y16788579D01*
X21489672Y16615310D01*
X21860363Y16365276D01*
X22175429Y16048002D01*
X22422868Y15675576D01*
X22593255Y15262187D01*
X22679886Y14824670D01*
X22679886Y14824639D01*
X22680098Y14823566D01*
X22672967Y14312858D01*
X22672724Y14311790D01*
X22672724Y14311759D01*
X22573911Y13876834D01*
X22392047Y13468359D01*
X22134307Y13102990D01*
X21810501Y12794635D01*
X21432981Y12555053D01*
X21016104Y12393356D01*
X20575768Y12315714D01*
X20128734Y12325077D01*
X19692028Y12421094D01*
X19282295Y12600101D01*
X18915130Y12855288D01*
X18604530Y13176924D01*
X18362312Y13552773D01*
X18197712Y13968506D01*
X18116996Y14408290D01*
X18123239Y14855377D01*
X18149034Y14976735D01*
X18152105Y15021653D01*
X18142541Y15065648D01*
X18121099Y15105237D01*
X18089476Y15137285D01*
X18050178Y15159254D01*
X17992530Y15170000D01*
X16470000Y15170000D01*
X16470000Y16830000D01*
X18130000Y16830000D01*
X18130000Y15837444D01*
X18136335Y15792869D01*
X18154837Y15751824D01*
X18184041Y15717558D01*
X18221636Y15692785D01*
X18264643Y15679466D01*
X18309659Y15678656D01*
X18353118Y15690420D01*
X18391579Y15713825D01*
X18422018Y15747049D01*
X18644962Y16072651D01*
X18964428Y16385495D01*
X19338571Y16630327D01*
X19753143Y16797825D01*
X20192357Y16881609D01*
X20639478Y16878489D01*
X20639478Y16878489D01*
G37*
G36*
X7387179Y16529454D02*
X7546628Y16496723D01*
X7696680Y16433648D01*
X7831626Y16342626D01*
X7946322Y16227125D01*
X8036398Y16091551D01*
X8098426Y15941060D01*
X8129823Y15782491D01*
X8129823Y15782464D01*
X8130036Y15781386D01*
X8127440Y15595470D01*
X8127197Y15594402D01*
X8127197Y15594372D01*
X8091383Y15436739D01*
X8025179Y15288041D01*
X7931351Y15155032D01*
X7813479Y15042784D01*
X7676041Y14955564D01*
X7524283Y14896700D01*
X7363986Y14868436D01*
X7201249Y14871844D01*
X7042272Y14906797D01*
X6893114Y14971963D01*
X6759451Y15064861D01*
X6646386Y15181944D01*
X6558204Y15318775D01*
X6498287Y15470109D01*
X6468902Y15630215D01*
X6471175Y15792965D01*
X6505018Y15952187D01*
X6569139Y16101791D01*
X6661101Y16236099D01*
X6777397Y16349984D01*
X6913605Y16439116D01*
X7064519Y16500089D01*
X7224411Y16530590D01*
X7387179Y16529454D01*
X7387179Y16529454D01*
G37*
G36*
X11387179Y16529454D02*
X11546628Y16496723D01*
X11696680Y16433648D01*
X11831626Y16342626D01*
X11946322Y16227125D01*
X12036398Y16091551D01*
X12098426Y15941060D01*
X12129823Y15782491D01*
X12129823Y15782464D01*
X12130036Y15781386D01*
X12127440Y15595470D01*
X12127197Y15594402D01*
X12127197Y15594372D01*
X12091383Y15436739D01*
X12025179Y15288041D01*
X11931351Y15155032D01*
X11813479Y15042784D01*
X11676041Y14955564D01*
X11524283Y14896700D01*
X11363986Y14868436D01*
X11201249Y14871844D01*
X11042272Y14906797D01*
X10893114Y14971963D01*
X10759451Y15064861D01*
X10646386Y15181944D01*
X10558204Y15318775D01*
X10498287Y15470109D01*
X10468902Y15630215D01*
X10471175Y15792965D01*
X10505018Y15952187D01*
X10569139Y16101791D01*
X10661101Y16236099D01*
X10777397Y16349984D01*
X10913605Y16439116D01*
X11064519Y16500089D01*
X11224411Y16530590D01*
X11387179Y16529454D01*
X11387179Y16529454D01*
G37*
G36*
X15387179Y16529454D02*
X15546628Y16496723D01*
X15696680Y16433648D01*
X15831626Y16342626D01*
X15946322Y16227125D01*
X16036398Y16091551D01*
X16098426Y15941060D01*
X16129823Y15782491D01*
X16129823Y15782464D01*
X16130036Y15781386D01*
X16127440Y15595470D01*
X16127197Y15594402D01*
X16127197Y15594372D01*
X16091383Y15436739D01*
X16025179Y15288041D01*
X15931351Y15155032D01*
X15813479Y15042784D01*
X15676041Y14955564D01*
X15524283Y14896700D01*
X15363986Y14868436D01*
X15201249Y14871844D01*
X15042272Y14906797D01*
X14893114Y14971963D01*
X14759451Y15064861D01*
X14646386Y15181944D01*
X14558204Y15318775D01*
X14498287Y15470109D01*
X14468902Y15630215D01*
X14471175Y15792965D01*
X14505018Y15952187D01*
X14569139Y16101791D01*
X14661101Y16236099D01*
X14777397Y16349984D01*
X14913605Y16439116D01*
X15064519Y16500089D01*
X15224411Y16530590D01*
X15387179Y16529454D01*
X15387179Y16529454D01*
G37*
G36*
X13387179Y16829454D02*
X13546628Y16796723D01*
X13696680Y16733648D01*
X13831626Y16642626D01*
X13946322Y16527125D01*
X14036398Y16391551D01*
X14098426Y16241060D01*
X14129823Y16082491D01*
X14129823Y16082464D01*
X14130036Y16081386D01*
X14127440Y15895470D01*
X14127197Y15894402D01*
X14127197Y15894372D01*
X14091383Y15736739D01*
X14025179Y15588041D01*
X13931351Y15455032D01*
X13813479Y15342784D01*
X13676041Y15255564D01*
X13524283Y15196700D01*
X13363986Y15168436D01*
X13201249Y15171844D01*
X13042272Y15206797D01*
X12893114Y15271963D01*
X12759451Y15364861D01*
X12646386Y15481944D01*
X12558204Y15618775D01*
X12498287Y15770109D01*
X12468902Y15930215D01*
X12471175Y16092965D01*
X12505018Y16252187D01*
X12569139Y16401791D01*
X12661101Y16536099D01*
X12777397Y16649984D01*
X12913605Y16739116D01*
X13064519Y16800089D01*
X13224411Y16830590D01*
X13387179Y16829454D01*
X13387179Y16829454D01*
G37*
G36*
X9387179Y16829454D02*
X9546628Y16796723D01*
X9696680Y16733648D01*
X9831626Y16642626D01*
X9946322Y16527125D01*
X10036398Y16391551D01*
X10098426Y16241060D01*
X10129823Y16082491D01*
X10129823Y16082464D01*
X10130036Y16081386D01*
X10127440Y15895470D01*
X10127197Y15894402D01*
X10127197Y15894372D01*
X10091383Y15736739D01*
X10025179Y15588041D01*
X9931351Y15455032D01*
X9813479Y15342784D01*
X9676041Y15255564D01*
X9524283Y15196700D01*
X9363986Y15168436D01*
X9201249Y15171844D01*
X9042272Y15206797D01*
X8893114Y15271963D01*
X8759451Y15364861D01*
X8646386Y15481944D01*
X8558204Y15618775D01*
X8498287Y15770109D01*
X8468902Y15930215D01*
X8471175Y16092965D01*
X8505018Y16252187D01*
X8569139Y16401791D01*
X8661101Y16536099D01*
X8777397Y16649984D01*
X8913605Y16739116D01*
X9064519Y16800089D01*
X9224411Y16830590D01*
X9387179Y16829454D01*
X9387179Y16829454D01*
G37*
M02*
