M48
;DRILL file {KiCad 4.0.7} date 02/04/18 23:40:08
;FORMAT={-:-/ absolute / metric / decimal}
FMAT,2
METRIC,TZ
T1C0.300
T2C0.800
T3C2.400
%
G90
G05
M71
T1
X2.6Y5.4
X3.2Y4.2
X4.3Y11.6
X5.1Y1.1
X5.3Y2.1
X6.4Y4.7
X6.45Y2.
X6.5Y2.8
X8.Y3.3
X8.45Y5.65
X8.5Y11.9
X8.7Y1.7
X8.7Y0.9
X9.4Y7.9
X9.4Y7.1
X9.5Y8.7
X9.6Y10.4
X10.4Y5.2
X10.5Y6.
X10.7Y1.
X10.8Y3.2
X10.9Y4.1
X11.Y11.9
X11.5Y8.7
X11.6Y4.4
X11.9Y5.1
X12.5Y0.7
X14.45Y4.8
X15.4Y12.3
X15.53Y1.99
X15.7Y6.1
X15.8Y7.1
X16.1Y11.6
X16.4Y10.4
X16.9Y12.
X17.Y8.9
X17.5Y11.3
X19.2Y2.7
X19.4Y7.6
X19.4Y5.8
X19.6Y6.6
X19.6Y3.9
X20.1Y8.8
T2
X5.3Y16.
X7.3Y15.7
X9.3Y16.
X11.3Y15.7
X13.3Y16.
X15.3Y15.7
X17.3Y16.
T3
X2.4Y14.6
X20.4Y14.6
T0
M30
