G04 #@! TF.FileFunction,Legend,Top*
%FSLAX46Y46*%
G04 Gerber Fmt 4.6, Leading zero omitted, Abs format (unit mm)*
G04 Created by KiCad (PCBNEW 4.0.7) date 02/04/18 23:39:56*
%MOMM*%
%LPD*%
G01*
G04 APERTURE LIST*
%ADD10C,0.100000*%
%ADD11C,0.150000*%
%ADD12C,0.250000*%
%ADD13C,0.120000*%
%ADD14R,0.760000X0.660000*%
%ADD15C,4.560000*%
%ADD16R,0.960000X0.910000*%
%ADD17R,0.660000X0.760000*%
%ADD18R,1.760000X0.960000*%
%ADD19R,3.160000X2.260000*%
%ADD20R,0.560000X0.760000*%
%ADD21R,0.860000X0.410000*%
%ADD22R,0.410000X0.860000*%
%ADD23R,1.885000X1.885000*%
%ADD24R,1.310000X1.560000*%
%ADD25R,0.660000X1.060000*%
%ADD26C,1.660000*%
%ADD27R,1.660000X1.660000*%
G04 APERTURE END LIST*
D10*
D11*
X9942856Y13838095D02*
X9942856Y14638095D01*
X9942856Y13876190D02*
X9866666Y13838095D01*
X9714285Y13838095D01*
X9638094Y13876190D01*
X9599999Y13914286D01*
X9561904Y13990476D01*
X9561904Y14219048D01*
X9599999Y14295238D01*
X9638094Y14333333D01*
X9714285Y14371429D01*
X9866666Y14371429D01*
X9942856Y14333333D01*
X10628571Y13876190D02*
X10552381Y13838095D01*
X10400000Y13838095D01*
X10323809Y13876190D01*
X10285714Y13952381D01*
X10285714Y14257143D01*
X10323809Y14333333D01*
X10400000Y14371429D01*
X10552381Y14371429D01*
X10628571Y14333333D01*
X10666666Y14257143D01*
X10666666Y14180952D01*
X10285714Y14104762D01*
X11009523Y13838095D02*
X11009523Y14638095D01*
X11009523Y14333333D02*
X11085714Y14371429D01*
X11238095Y14371429D01*
X11314285Y14333333D01*
X11352380Y14295238D01*
X11390476Y14219048D01*
X11390476Y13990476D01*
X11352380Y13914286D01*
X11314285Y13876190D01*
X11238095Y13838095D01*
X11085714Y13838095D01*
X11009523Y13876190D01*
X12076190Y14371429D02*
X12076190Y13838095D01*
X11733333Y14371429D02*
X11733333Y13952381D01*
X11771428Y13876190D01*
X11847619Y13838095D01*
X11961905Y13838095D01*
X12038095Y13876190D01*
X12076190Y13914286D01*
X12800000Y14371429D02*
X12800000Y13723810D01*
X12761905Y13647619D01*
X12723810Y13609524D01*
X12647619Y13571429D01*
X12533334Y13571429D01*
X12457143Y13609524D01*
X12800000Y13876190D02*
X12723810Y13838095D01*
X12571429Y13838095D01*
X12495238Y13876190D01*
X12457143Y13914286D01*
X12419048Y13990476D01*
X12419048Y14219048D01*
X12457143Y14295238D01*
X12495238Y14333333D01*
X12571429Y14371429D01*
X12723810Y14371429D01*
X12800000Y14333333D01*
X17550000Y8925000D02*
X18050000Y8925000D01*
X18050000Y9875000D02*
X17550000Y9875000D01*
X8650000Y5400000D02*
X7950000Y5400000D01*
X7950000Y6600000D02*
X8650000Y6600000D01*
X7250000Y6625000D02*
X7750000Y6625000D01*
X7750000Y7575000D02*
X7250000Y7575000D01*
X5775000Y9950000D02*
X5775000Y10450000D01*
X4825000Y10450000D02*
X4825000Y9950000D01*
X8225000Y4350000D02*
X8225000Y3850000D01*
X9175000Y3850000D02*
X9175000Y4350000D01*
D12*
X19300000Y4125000D02*
X19290000Y4125000D01*
X3500000Y7875000D02*
X3510000Y7875000D01*
D11*
X7850000Y2525000D02*
X7350000Y2525000D01*
X7350000Y1475000D02*
X7850000Y1475000D01*
X7850000Y1525000D02*
X7350000Y1525000D01*
X7350000Y475000D02*
X7850000Y475000D01*
X15650000Y1725000D02*
X15150000Y1725000D01*
X15150000Y675000D02*
X15650000Y675000D01*
X15325000Y11025000D02*
X15325000Y10500000D01*
X10075000Y5775000D02*
X10075000Y6300000D01*
X15325000Y5775000D02*
X15325000Y6300000D01*
X10075000Y11025000D02*
X10600000Y11025000D01*
X10075000Y5775000D02*
X10600000Y5775000D01*
X15325000Y5775000D02*
X14800000Y5775000D01*
X15325000Y11025000D02*
X14800000Y11025000D01*
D12*
X8900000Y7400000D02*
X8910000Y7400000D01*
D11*
X4600000Y1875000D02*
X5600000Y1875000D01*
X5600000Y525000D02*
X4600000Y525000D01*
X17000000Y1875000D02*
X18000000Y1875000D01*
X18000000Y525000D02*
X17000000Y525000D01*
D13*
X10230000Y2350000D02*
X10230000Y1850000D01*
X11170000Y1850000D02*
X11170000Y2350000D01*
D10*
X17414285Y10214286D02*
X17385714Y10176190D01*
X17300000Y10138095D01*
X17242857Y10138095D01*
X17157142Y10176190D01*
X17100000Y10252381D01*
X17071428Y10328571D01*
X17042857Y10480952D01*
X17042857Y10595238D01*
X17071428Y10747619D01*
X17100000Y10823810D01*
X17157142Y10900000D01*
X17242857Y10938095D01*
X17300000Y10938095D01*
X17385714Y10900000D01*
X17414285Y10861905D01*
X17985714Y10138095D02*
X17642857Y10138095D01*
X17814285Y10138095D02*
X17814285Y10938095D01*
X17757142Y10823810D01*
X17700000Y10747619D01*
X17642857Y10709524D01*
X18557143Y10138095D02*
X18214286Y10138095D01*
X18385714Y10138095D02*
X18385714Y10938095D01*
X18328571Y10823810D01*
X18271429Y10747619D01*
X18214286Y10709524D01*
X7100000Y4614286D02*
X7071429Y4576190D01*
X6985715Y4538095D01*
X6928572Y4538095D01*
X6842857Y4576190D01*
X6785715Y4652381D01*
X6757143Y4728571D01*
X6728572Y4880952D01*
X6728572Y4995238D01*
X6757143Y5147619D01*
X6785715Y5223810D01*
X6842857Y5300000D01*
X6928572Y5338095D01*
X6985715Y5338095D01*
X7071429Y5300000D01*
X7100000Y5261905D01*
X7642857Y5338095D02*
X7357143Y5338095D01*
X7328572Y4957143D01*
X7357143Y4995238D01*
X7414286Y5033333D01*
X7557143Y5033333D01*
X7614286Y4995238D01*
X7642857Y4957143D01*
X7671429Y4880952D01*
X7671429Y4690476D01*
X7642857Y4614286D01*
X7614286Y4576190D01*
X7557143Y4538095D01*
X7414286Y4538095D01*
X7357143Y4576190D01*
X7328572Y4614286D01*
X6785714Y6100000D02*
X6823810Y6071429D01*
X6861905Y5985715D01*
X6861905Y5928572D01*
X6823810Y5842857D01*
X6747619Y5785715D01*
X6671429Y5757143D01*
X6519048Y5728572D01*
X6404762Y5728572D01*
X6252381Y5757143D01*
X6176190Y5785715D01*
X6100000Y5842857D01*
X6061905Y5928572D01*
X6061905Y5985715D01*
X6100000Y6071429D01*
X6138095Y6100000D01*
X6404762Y6442857D02*
X6366667Y6385715D01*
X6328571Y6357143D01*
X6252381Y6328572D01*
X6214286Y6328572D01*
X6138095Y6357143D01*
X6100000Y6385715D01*
X6061905Y6442857D01*
X6061905Y6557143D01*
X6100000Y6614286D01*
X6138095Y6642857D01*
X6214286Y6671429D01*
X6252381Y6671429D01*
X6328571Y6642857D01*
X6366667Y6614286D01*
X6404762Y6557143D01*
X6404762Y6442857D01*
X6442857Y6385715D01*
X6480952Y6357143D01*
X6557143Y6328572D01*
X6709524Y6328572D01*
X6785714Y6357143D01*
X6823810Y6385715D01*
X6861905Y6442857D01*
X6861905Y6557143D01*
X6823810Y6614286D01*
X6785714Y6642857D01*
X6709524Y6671429D01*
X6557143Y6671429D01*
X6480952Y6642857D01*
X6442857Y6614286D01*
X6404762Y6557143D01*
X4585714Y10200000D02*
X4623810Y10171429D01*
X4661905Y10085715D01*
X4661905Y10028572D01*
X4623810Y9942857D01*
X4547619Y9885715D01*
X4471429Y9857143D01*
X4319048Y9828572D01*
X4204762Y9828572D01*
X4052381Y9857143D01*
X3976190Y9885715D01*
X3900000Y9942857D01*
X3861905Y10028572D01*
X3861905Y10085715D01*
X3900000Y10171429D01*
X3938095Y10200000D01*
X4661905Y10485715D02*
X4661905Y10600000D01*
X4623810Y10657143D01*
X4585714Y10685715D01*
X4471429Y10742857D01*
X4319048Y10771429D01*
X4014286Y10771429D01*
X3938095Y10742857D01*
X3900000Y10714286D01*
X3861905Y10657143D01*
X3861905Y10542857D01*
X3900000Y10485715D01*
X3938095Y10457143D01*
X4014286Y10428572D01*
X4204762Y10428572D01*
X4280952Y10457143D01*
X4319048Y10485715D01*
X4357143Y10542857D01*
X4357143Y10657143D01*
X4319048Y10714286D01*
X4280952Y10742857D01*
X4204762Y10771429D01*
X10085714Y3614285D02*
X10123810Y3585714D01*
X10161905Y3500000D01*
X10161905Y3442857D01*
X10123810Y3357142D01*
X10047619Y3300000D01*
X9971429Y3271428D01*
X9819048Y3242857D01*
X9704762Y3242857D01*
X9552381Y3271428D01*
X9476190Y3300000D01*
X9400000Y3357142D01*
X9361905Y3442857D01*
X9361905Y3500000D01*
X9400000Y3585714D01*
X9438095Y3614285D01*
X10161905Y4185714D02*
X10161905Y3842857D01*
X10161905Y4014285D02*
X9361905Y4014285D01*
X9476190Y3957142D01*
X9552381Y3900000D01*
X9590476Y3842857D01*
X9361905Y4385714D02*
X9361905Y4757143D01*
X9666667Y4557143D01*
X9666667Y4642857D01*
X9704762Y4700000D01*
X9742857Y4728571D01*
X9819048Y4757143D01*
X10009524Y4757143D01*
X10085714Y4728571D01*
X10123810Y4700000D01*
X10161905Y4642857D01*
X10161905Y4471429D01*
X10123810Y4414286D01*
X10085714Y4385714D01*
X9100000Y1638095D02*
X8900000Y2019048D01*
X8757143Y1638095D02*
X8757143Y2438095D01*
X8985715Y2438095D01*
X9042857Y2400000D01*
X9071429Y2361905D01*
X9100000Y2285714D01*
X9100000Y2171429D01*
X9071429Y2095238D01*
X9042857Y2057143D01*
X8985715Y2019048D01*
X8757143Y2019048D01*
X9300000Y2438095D02*
X9671429Y2438095D01*
X9471429Y2133333D01*
X9557143Y2133333D01*
X9614286Y2095238D01*
X9642857Y2057143D01*
X9671429Y1980952D01*
X9671429Y1790476D01*
X9642857Y1714286D01*
X9614286Y1676190D01*
X9557143Y1638095D01*
X9385715Y1638095D01*
X9328572Y1676190D01*
X9300000Y1714286D01*
X9100000Y538095D02*
X8900000Y919048D01*
X8757143Y538095D02*
X8757143Y1338095D01*
X8985715Y1338095D01*
X9042857Y1300000D01*
X9071429Y1261905D01*
X9100000Y1185714D01*
X9100000Y1071429D01*
X9071429Y995238D01*
X9042857Y957143D01*
X8985715Y919048D01*
X8757143Y919048D01*
X9614286Y1071429D02*
X9614286Y538095D01*
X9471429Y1376190D02*
X9328572Y804762D01*
X9700000Y804762D01*
X15400000Y2138095D02*
X15200000Y2519048D01*
X15057143Y2138095D02*
X15057143Y2938095D01*
X15285715Y2938095D01*
X15342857Y2900000D01*
X15371429Y2861905D01*
X15400000Y2785714D01*
X15400000Y2671429D01*
X15371429Y2595238D01*
X15342857Y2557143D01*
X15285715Y2519048D01*
X15057143Y2519048D01*
X15600000Y2938095D02*
X16000000Y2938095D01*
X15742857Y2138095D01*
X12242857Y12588095D02*
X12242857Y11940476D01*
X12271429Y11864286D01*
X12300000Y11826190D01*
X12357143Y11788095D01*
X12471429Y11788095D01*
X12528571Y11826190D01*
X12557143Y11864286D01*
X12585714Y11940476D01*
X12585714Y12588095D01*
X13185714Y11788095D02*
X12842857Y11788095D01*
X13014285Y11788095D02*
X13014285Y12588095D01*
X12957142Y12473810D01*
X12900000Y12397619D01*
X12842857Y12359524D01*
X7114285Y12838095D02*
X7514285Y12038095D01*
X7514285Y12838095D02*
X7114285Y12038095D01*
X8057143Y12038095D02*
X7714286Y12038095D01*
X7885714Y12038095D02*
X7885714Y12838095D01*
X7828571Y12723810D01*
X7771429Y12647619D01*
X7714286Y12609524D01*
X4657143Y2138095D02*
X4657143Y2938095D01*
X4800000Y2938095D01*
X4885715Y2900000D01*
X4942857Y2823810D01*
X4971429Y2747619D01*
X5000000Y2595238D01*
X5000000Y2480952D01*
X4971429Y2328571D01*
X4942857Y2252381D01*
X4885715Y2176190D01*
X4800000Y2138095D01*
X4657143Y2138095D01*
X5228572Y2861905D02*
X5257143Y2900000D01*
X5314286Y2938095D01*
X5457143Y2938095D01*
X5514286Y2900000D01*
X5542857Y2861905D01*
X5571429Y2785714D01*
X5571429Y2709524D01*
X5542857Y2595238D01*
X5200000Y2138095D01*
X5571429Y2138095D01*
X17057143Y2138095D02*
X17057143Y2938095D01*
X17200000Y2938095D01*
X17285715Y2900000D01*
X17342857Y2823810D01*
X17371429Y2747619D01*
X17400000Y2595238D01*
X17400000Y2480952D01*
X17371429Y2328571D01*
X17342857Y2252381D01*
X17285715Y2176190D01*
X17200000Y2138095D01*
X17057143Y2138095D01*
X17600000Y2938095D02*
X17971429Y2938095D01*
X17771429Y2633333D01*
X17857143Y2633333D01*
X17914286Y2595238D01*
X17942857Y2557143D01*
X17971429Y2480952D01*
X17971429Y2290476D01*
X17942857Y2214286D01*
X17914286Y2176190D01*
X17857143Y2138095D01*
X17685715Y2138095D01*
X17628572Y2176190D01*
X17600000Y2214286D01*
X12185714Y2100000D02*
X12223810Y2071429D01*
X12261905Y1985715D01*
X12261905Y1928572D01*
X12223810Y1842857D01*
X12147619Y1785715D01*
X12071429Y1757143D01*
X11919048Y1728572D01*
X11804762Y1728572D01*
X11652381Y1757143D01*
X11576190Y1785715D01*
X11500000Y1842857D01*
X11461905Y1928572D01*
X11461905Y1985715D01*
X11500000Y2071429D01*
X11538095Y2100000D01*
X11461905Y2614286D02*
X11461905Y2500000D01*
X11500000Y2442857D01*
X11538095Y2414286D01*
X11652381Y2357143D01*
X11804762Y2328572D01*
X12109524Y2328572D01*
X12185714Y2357143D01*
X12223810Y2385715D01*
X12261905Y2442857D01*
X12261905Y2557143D01*
X12223810Y2614286D01*
X12185714Y2642857D01*
X12109524Y2671429D01*
X11919048Y2671429D01*
X11842857Y2642857D01*
X11804762Y2614286D01*
X11766667Y2557143D01*
X11766667Y2442857D01*
X11804762Y2385715D01*
X11842857Y2357143D01*
X11919048Y2328572D01*
%LPC*%
D14*
X18350000Y9400000D03*
X17250000Y9400000D03*
D15*
X20400000Y14600000D03*
X2400000Y14600000D03*
D16*
X9050000Y6000000D03*
X7550000Y6000000D03*
D14*
X8050000Y7100000D03*
X6950000Y7100000D03*
D17*
X5300000Y10750000D03*
X5300000Y9650000D03*
X8700000Y3550000D03*
X8700000Y4650000D03*
D18*
X17900000Y7875000D03*
X17900000Y6625000D03*
X17900000Y5375000D03*
X17900000Y4125000D03*
D19*
X20800000Y1575000D03*
X20800000Y10425000D03*
D18*
X4900000Y4125000D03*
X4900000Y5375000D03*
X4900000Y6625000D03*
X4900000Y7875000D03*
D19*
X2000000Y10425000D03*
X2000000Y1575000D03*
D20*
X7150000Y2000000D03*
X8050000Y2000000D03*
X7150000Y1000000D03*
X8050000Y1000000D03*
X14950000Y1200000D03*
X15850000Y1200000D03*
D21*
X10300000Y10150000D03*
X10300000Y9650000D03*
X10300000Y9150000D03*
X10300000Y8650000D03*
X10300000Y8150000D03*
X10300000Y7650000D03*
X10300000Y7150000D03*
X10300000Y6650000D03*
D22*
X10950000Y6000000D03*
X11450000Y6000000D03*
X11950000Y6000000D03*
X12450000Y6000000D03*
X12950000Y6000000D03*
X13450000Y6000000D03*
X13950000Y6000000D03*
X14450000Y6000000D03*
D21*
X15100000Y6650000D03*
X15100000Y7150000D03*
X15100000Y7650000D03*
X15100000Y8150000D03*
X15100000Y8650000D03*
X15100000Y9150000D03*
X15100000Y9650000D03*
X15100000Y10150000D03*
D22*
X14450000Y10800000D03*
X13950000Y10800000D03*
X13450000Y10800000D03*
X12950000Y10800000D03*
X12450000Y10800000D03*
X11950000Y10800000D03*
X11450000Y10800000D03*
X10950000Y10800000D03*
D23*
X13562500Y7537500D03*
X13562500Y9262500D03*
X11837500Y7537500D03*
X11837500Y9262500D03*
D24*
X6700000Y8500000D03*
X6700000Y10700000D03*
X8300000Y10700000D03*
X8300000Y8500000D03*
D25*
X5850000Y1200000D03*
X4350000Y1200000D03*
X18250000Y1200000D03*
X16750000Y1200000D03*
D17*
X10700000Y1550000D03*
X10700000Y2650000D03*
D26*
X5300000Y16000000D03*
X7300000Y15700000D03*
X9300000Y16000000D03*
X11300000Y15700000D03*
X13300000Y16000000D03*
D27*
X17300000Y16000000D03*
D26*
X15300000Y15700000D03*
M02*
