G04 #@! TF.FileFunction,Soldermask,Top*
%FSLAX46Y46*%
G04 Gerber Fmt 4.6, Leading zero omitted, Abs format (unit mm)*
G04 Created by KiCad (PCBNEW 4.0.7) date 02/04/18 23:39:56*
%MOMM*%
%LPD*%
G01*
G04 APERTURE LIST*
%ADD10C,0.100000*%
G04 APERTURE END LIST*
D10*
G36*
X22380000Y445000D02*
X19220000Y445000D01*
X19220000Y2705000D01*
X22380000Y2705000D01*
X22380000Y445000D01*
X22380000Y445000D01*
G37*
G36*
X3580000Y445000D02*
X420000Y445000D01*
X420000Y2705000D01*
X3580000Y2705000D01*
X3580000Y445000D01*
X3580000Y445000D01*
G37*
G36*
X8330000Y620000D02*
X7770000Y620000D01*
X7770000Y2380000D01*
X8330000Y2380000D01*
X8330000Y620000D01*
X8330000Y620000D01*
G37*
G36*
X7430000Y620000D02*
X6870000Y620000D01*
X6870000Y2380000D01*
X7430000Y2380000D01*
X7430000Y620000D01*
X7430000Y620000D01*
G37*
G36*
X4680000Y670000D02*
X4020000Y670000D01*
X4020000Y1730000D01*
X4680000Y1730000D01*
X4680000Y670000D01*
X4680000Y670000D01*
G37*
G36*
X6180000Y670000D02*
X5520000Y670000D01*
X5520000Y1730000D01*
X6180000Y1730000D01*
X6180000Y670000D01*
X6180000Y670000D01*
G37*
G36*
X18580000Y670000D02*
X17920000Y670000D01*
X17920000Y1730000D01*
X18580000Y1730000D01*
X18580000Y670000D01*
X18580000Y670000D01*
G37*
G36*
X17080000Y670000D02*
X16418579Y670000D01*
X16413665Y704575D01*
X16395163Y745620D01*
X16365959Y779886D01*
X16328364Y804659D01*
X16285357Y817978D01*
X16260000Y820000D01*
X15570000Y820000D01*
X15570000Y1580000D01*
X16260000Y1580000D01*
X16304575Y1586335D01*
X16345620Y1604837D01*
X16379886Y1634041D01*
X16404659Y1671636D01*
X16417978Y1714643D01*
X16419203Y1730000D01*
X17080000Y1730000D01*
X17080000Y670000D01*
X17080000Y670000D01*
G37*
G36*
X15230000Y820000D02*
X14670000Y820000D01*
X14670000Y1580000D01*
X15230000Y1580000D01*
X15230000Y820000D01*
X15230000Y820000D01*
G37*
G36*
X11030000Y1170000D02*
X10370000Y1170000D01*
X10370000Y1930000D01*
X11030000Y1930000D01*
X11030000Y1170000D01*
X11030000Y1170000D01*
G37*
G36*
X11030000Y2270000D02*
X10370000Y2270000D01*
X10370000Y3030000D01*
X11030000Y3030000D01*
X11030000Y2270000D01*
X11030000Y2270000D01*
G37*
G36*
X9030000Y3170000D02*
X8370000Y3170000D01*
X8370000Y3930000D01*
X9030000Y3930000D01*
X9030000Y3170000D01*
X9030000Y3170000D01*
G37*
G36*
X18780000Y3645000D02*
X17020000Y3645000D01*
X17020000Y8355000D01*
X18780000Y8355000D01*
X18780000Y3645000D01*
X18780000Y3645000D01*
G37*
G36*
X8955000Y7720000D02*
X8590000Y7720000D01*
X8545425Y7713665D01*
X8504380Y7695163D01*
X8470114Y7665959D01*
X8445341Y7628364D01*
X8432022Y7585357D01*
X8430000Y7560000D01*
X8430000Y6768405D01*
X8410000Y6770000D01*
X8190000Y6770000D01*
X8145425Y6763665D01*
X8104380Y6745163D01*
X8070114Y6715959D01*
X8045341Y6678364D01*
X8032022Y6635357D01*
X8030000Y6610000D01*
X8030000Y5545000D01*
X7070000Y5545000D01*
X7070000Y6610000D01*
X7063665Y6654575D01*
X7045163Y6695620D01*
X7015959Y6729886D01*
X6978364Y6754659D01*
X6935357Y6767978D01*
X6910000Y6770000D01*
X6570000Y6770000D01*
X6570000Y7560000D01*
X7330000Y7560000D01*
X7330000Y6615000D01*
X7336335Y6570425D01*
X7354837Y6529380D01*
X7384041Y6495114D01*
X7421636Y6470341D01*
X7464643Y6457022D01*
X7490000Y6455000D01*
X7510000Y6455000D01*
X7554575Y6461335D01*
X7595620Y6479837D01*
X7629886Y6509041D01*
X7654659Y6546636D01*
X7667978Y6589643D01*
X7670000Y6615000D01*
X7670000Y7560000D01*
X7663665Y7604575D01*
X7645163Y7645620D01*
X7615959Y7679886D01*
X7578364Y7704659D01*
X7535357Y7717978D01*
X7510000Y7720000D01*
X7490000Y7720000D01*
X7445425Y7713665D01*
X7404380Y7695163D01*
X7370114Y7665959D01*
X7345341Y7628364D01*
X7332022Y7585357D01*
X7330000Y7560000D01*
X6570000Y7560000D01*
X6563665Y7604575D01*
X6545163Y7645620D01*
X6515959Y7679886D01*
X6478364Y7704659D01*
X6435357Y7717978D01*
X6410000Y7720000D01*
X5940000Y7720000D01*
X5895425Y7713665D01*
X5854380Y7695163D01*
X5820114Y7665959D01*
X5795341Y7628364D01*
X5782022Y7585357D01*
X5780000Y7560000D01*
X5780000Y3645000D01*
X4020000Y3645000D01*
X4020000Y8355000D01*
X5885000Y8355000D01*
X5929575Y8361335D01*
X5970620Y8379837D01*
X6004886Y8409041D01*
X6029659Y8446636D01*
X6042978Y8489643D01*
X6045000Y8515000D01*
X6045000Y9280000D01*
X8955000Y9280000D01*
X8955000Y7720000D01*
X8955000Y7720000D01*
G37*
G36*
X9030000Y4270000D02*
X8370000Y4270000D01*
X8370000Y5030000D01*
X9030000Y5030000D01*
X9030000Y4270000D01*
X9030000Y4270000D01*
G37*
G36*
X8590000Y6455000D02*
X9530000Y6455000D01*
X9530000Y5545000D01*
X8570000Y5545000D01*
X8570000Y6456595D01*
X8590000Y6455000D01*
X8590000Y6455000D01*
G37*
G36*
X14655000Y10515000D02*
X14661335Y10470425D01*
X14679837Y10429380D01*
X14709041Y10395114D01*
X14746636Y10370341D01*
X14789643Y10357022D01*
X14815000Y10355000D01*
X15530000Y10355000D01*
X15530000Y6445000D01*
X14815000Y6445000D01*
X14770425Y6438665D01*
X14729380Y6420163D01*
X14695114Y6390959D01*
X14670341Y6353364D01*
X14657022Y6310357D01*
X14655000Y6285000D01*
X14655000Y5570000D01*
X10745000Y5570000D01*
X10745000Y6285000D01*
X10738665Y6329575D01*
X10720163Y6370620D01*
X10690959Y6404886D01*
X10653364Y6429659D01*
X10610357Y6442978D01*
X10585000Y6445000D01*
X9870000Y6445000D01*
X9870000Y10355000D01*
X10585000Y10355000D01*
X10629575Y10361335D01*
X10670620Y10379837D01*
X10704886Y10409041D01*
X10729659Y10446636D01*
X10742978Y10489643D01*
X10745000Y10515000D01*
X10745000Y11230000D01*
X14655000Y11230000D01*
X14655000Y10515000D01*
X14655000Y10515000D01*
G37*
G36*
X18730000Y9070000D02*
X17970000Y9070000D01*
X17970000Y9730000D01*
X18730000Y9730000D01*
X18730000Y9070000D01*
X18730000Y9070000D01*
G37*
G36*
X17630000Y9070000D02*
X16870000Y9070000D01*
X16870000Y9730000D01*
X17630000Y9730000D01*
X17630000Y9070000D01*
X17630000Y9070000D01*
G37*
G36*
X5630000Y9270000D02*
X4970000Y9270000D01*
X4970000Y10030000D01*
X5630000Y10030000D01*
X5630000Y9270000D01*
X5630000Y9270000D01*
G37*
G36*
X3580000Y9295000D02*
X420000Y9295000D01*
X420000Y11555000D01*
X3580000Y11555000D01*
X3580000Y9295000D01*
X3580000Y9295000D01*
G37*
G36*
X22380000Y9295000D02*
X19220000Y9295000D01*
X19220000Y11555000D01*
X22380000Y11555000D01*
X22380000Y9295000D01*
X22380000Y9295000D01*
G37*
G36*
X8955000Y9920000D02*
X6045000Y9920000D01*
X6045000Y11480000D01*
X8955000Y11480000D01*
X8955000Y9920000D01*
X8955000Y9920000D01*
G37*
G36*
X5630000Y10370000D02*
X4970000Y10370000D01*
X4970000Y11130000D01*
X5630000Y11130000D01*
X5630000Y10370000D01*
X5630000Y10370000D01*
G37*
G36*
X2639478Y16878489D02*
X3077481Y16788579D01*
X3489672Y16615310D01*
X3860363Y16365276D01*
X4175429Y16048002D01*
X4181617Y16038689D01*
X4211561Y16005067D01*
X4249686Y15981118D01*
X4292973Y15968739D01*
X4337996Y15968910D01*
X4381188Y15981617D01*
X4419130Y16005854D01*
X4448818Y16039701D01*
X4471388Y16093967D01*
X4505018Y16252187D01*
X4569139Y16401791D01*
X4661101Y16536099D01*
X4777397Y16649984D01*
X4913605Y16739116D01*
X5064519Y16800089D01*
X5224411Y16830590D01*
X5387179Y16829454D01*
X5546628Y16796723D01*
X5696680Y16733648D01*
X5831626Y16642626D01*
X5946322Y16527125D01*
X6036398Y16391551D01*
X6098426Y16241060D01*
X6129823Y16082491D01*
X6129823Y16082464D01*
X6130036Y16081386D01*
X6127440Y15895470D01*
X6127197Y15894402D01*
X6127197Y15894372D01*
X6091383Y15736739D01*
X6025179Y15588041D01*
X5931351Y15455032D01*
X5813479Y15342784D01*
X5676041Y15255564D01*
X5524283Y15196700D01*
X5363986Y15168436D01*
X5201249Y15171844D01*
X5042272Y15206797D01*
X4893113Y15271964D01*
X4868348Y15289176D01*
X4828130Y15309415D01*
X4783866Y15317647D01*
X4739061Y15313222D01*
X4697263Y15296490D01*
X4661781Y15268775D01*
X4635425Y15232273D01*
X4620282Y15189874D01*
X4620080Y15126716D01*
X4679886Y14824671D01*
X4679886Y14824639D01*
X4680098Y14823566D01*
X4672967Y14312858D01*
X4672724Y14311790D01*
X4672724Y14311759D01*
X4573911Y13876834D01*
X4392047Y13468359D01*
X4134307Y13102990D01*
X3810501Y12794635D01*
X3432981Y12555053D01*
X3016104Y12393356D01*
X2575768Y12315714D01*
X2128734Y12325077D01*
X1692028Y12421094D01*
X1282295Y12600101D01*
X915130Y12855288D01*
X604530Y13176924D01*
X362312Y13552773D01*
X197712Y13968506D01*
X116996Y14408290D01*
X123239Y14855375D01*
X216203Y15292741D01*
X392349Y15703718D01*
X644962Y16072651D01*
X964428Y16385495D01*
X1338571Y16630327D01*
X1753143Y16797825D01*
X2192357Y16881609D01*
X2639478Y16878489D01*
X2639478Y16878489D01*
G37*
G36*
X20639478Y16878489D02*
X21077481Y16788579D01*
X21489672Y16615310D01*
X21860363Y16365276D01*
X22175429Y16048002D01*
X22422868Y15675576D01*
X22593255Y15262187D01*
X22679886Y14824670D01*
X22679886Y14824639D01*
X22680098Y14823566D01*
X22672967Y14312858D01*
X22672724Y14311790D01*
X22672724Y14311759D01*
X22573911Y13876834D01*
X22392047Y13468359D01*
X22134307Y13102990D01*
X21810501Y12794635D01*
X21432981Y12555053D01*
X21016104Y12393356D01*
X20575768Y12315714D01*
X20128734Y12325077D01*
X19692028Y12421094D01*
X19282295Y12600101D01*
X18915130Y12855288D01*
X18604530Y13176924D01*
X18362312Y13552773D01*
X18197712Y13968506D01*
X18116996Y14408290D01*
X18123239Y14855377D01*
X18149034Y14976735D01*
X18152105Y15021653D01*
X18142541Y15065648D01*
X18121099Y15105237D01*
X18089476Y15137285D01*
X18050178Y15159254D01*
X17992530Y15170000D01*
X16470000Y15170000D01*
X16470000Y16830000D01*
X18130000Y16830000D01*
X18130000Y15837444D01*
X18136335Y15792869D01*
X18154837Y15751824D01*
X18184041Y15717558D01*
X18221636Y15692785D01*
X18264643Y15679466D01*
X18309659Y15678656D01*
X18353118Y15690420D01*
X18391579Y15713825D01*
X18422018Y15747049D01*
X18644962Y16072651D01*
X18964428Y16385495D01*
X19338571Y16630327D01*
X19753143Y16797825D01*
X20192357Y16881609D01*
X20639478Y16878489D01*
X20639478Y16878489D01*
G37*
G36*
X15387179Y16529454D02*
X15546628Y16496723D01*
X15696680Y16433648D01*
X15831626Y16342626D01*
X15946322Y16227125D01*
X16036398Y16091551D01*
X16098426Y15941060D01*
X16129823Y15782491D01*
X16129823Y15782464D01*
X16130036Y15781386D01*
X16127440Y15595470D01*
X16127197Y15594402D01*
X16127197Y15594372D01*
X16091383Y15436739D01*
X16025179Y15288041D01*
X15931351Y15155032D01*
X15813479Y15042784D01*
X15676041Y14955564D01*
X15524283Y14896700D01*
X15363986Y14868436D01*
X15201249Y14871844D01*
X15042272Y14906797D01*
X14893114Y14971963D01*
X14759451Y15064861D01*
X14646386Y15181944D01*
X14558204Y15318775D01*
X14498287Y15470109D01*
X14468902Y15630215D01*
X14471175Y15792965D01*
X14505018Y15952187D01*
X14569139Y16101791D01*
X14661101Y16236099D01*
X14777397Y16349984D01*
X14913605Y16439116D01*
X15064519Y16500089D01*
X15224411Y16530590D01*
X15387179Y16529454D01*
X15387179Y16529454D01*
G37*
G36*
X7387179Y16529454D02*
X7546628Y16496723D01*
X7696680Y16433648D01*
X7831626Y16342626D01*
X7946322Y16227125D01*
X8036398Y16091551D01*
X8098426Y15941060D01*
X8129823Y15782491D01*
X8129823Y15782464D01*
X8130036Y15781386D01*
X8127440Y15595470D01*
X8127197Y15594402D01*
X8127197Y15594372D01*
X8091383Y15436739D01*
X8025179Y15288041D01*
X7931351Y15155032D01*
X7813479Y15042784D01*
X7676041Y14955564D01*
X7524283Y14896700D01*
X7363986Y14868436D01*
X7201249Y14871844D01*
X7042272Y14906797D01*
X6893114Y14971963D01*
X6759451Y15064861D01*
X6646386Y15181944D01*
X6558204Y15318775D01*
X6498287Y15470109D01*
X6468902Y15630215D01*
X6471175Y15792965D01*
X6505018Y15952187D01*
X6569139Y16101791D01*
X6661101Y16236099D01*
X6777397Y16349984D01*
X6913605Y16439116D01*
X7064519Y16500089D01*
X7224411Y16530590D01*
X7387179Y16529454D01*
X7387179Y16529454D01*
G37*
G36*
X11387179Y16529454D02*
X11546628Y16496723D01*
X11696680Y16433648D01*
X11831626Y16342626D01*
X11946322Y16227125D01*
X12036398Y16091551D01*
X12098426Y15941060D01*
X12129823Y15782491D01*
X12129823Y15782464D01*
X12130036Y15781386D01*
X12127440Y15595470D01*
X12127197Y15594402D01*
X12127197Y15594372D01*
X12091383Y15436739D01*
X12025179Y15288041D01*
X11931351Y15155032D01*
X11813479Y15042784D01*
X11676041Y14955564D01*
X11524283Y14896700D01*
X11363986Y14868436D01*
X11201249Y14871844D01*
X11042272Y14906797D01*
X10893114Y14971963D01*
X10759451Y15064861D01*
X10646386Y15181944D01*
X10558204Y15318775D01*
X10498287Y15470109D01*
X10468902Y15630215D01*
X10471175Y15792965D01*
X10505018Y15952187D01*
X10569139Y16101791D01*
X10661101Y16236099D01*
X10777397Y16349984D01*
X10913605Y16439116D01*
X11064519Y16500089D01*
X11224411Y16530590D01*
X11387179Y16529454D01*
X11387179Y16529454D01*
G37*
G36*
X9387179Y16829454D02*
X9546628Y16796723D01*
X9696680Y16733648D01*
X9831626Y16642626D01*
X9946322Y16527125D01*
X10036398Y16391551D01*
X10098426Y16241060D01*
X10129823Y16082491D01*
X10129823Y16082464D01*
X10130036Y16081386D01*
X10127440Y15895470D01*
X10127197Y15894402D01*
X10127197Y15894372D01*
X10091383Y15736739D01*
X10025179Y15588041D01*
X9931351Y15455032D01*
X9813479Y15342784D01*
X9676041Y15255564D01*
X9524283Y15196700D01*
X9363986Y15168436D01*
X9201249Y15171844D01*
X9042272Y15206797D01*
X8893114Y15271963D01*
X8759451Y15364861D01*
X8646386Y15481944D01*
X8558204Y15618775D01*
X8498287Y15770109D01*
X8468902Y15930215D01*
X8471175Y16092965D01*
X8505018Y16252187D01*
X8569139Y16401791D01*
X8661101Y16536099D01*
X8777397Y16649984D01*
X8913605Y16739116D01*
X9064519Y16800089D01*
X9224411Y16830590D01*
X9387179Y16829454D01*
X9387179Y16829454D01*
G37*
G36*
X13387179Y16829454D02*
X13546628Y16796723D01*
X13696680Y16733648D01*
X13831626Y16642626D01*
X13946322Y16527125D01*
X14036398Y16391551D01*
X14098426Y16241060D01*
X14129823Y16082491D01*
X14129823Y16082464D01*
X14130036Y16081386D01*
X14127440Y15895470D01*
X14127197Y15894402D01*
X14127197Y15894372D01*
X14091383Y15736739D01*
X14025179Y15588041D01*
X13931351Y15455032D01*
X13813479Y15342784D01*
X13676041Y15255564D01*
X13524283Y15196700D01*
X13363986Y15168436D01*
X13201249Y15171844D01*
X13042272Y15206797D01*
X12893114Y15271963D01*
X12759451Y15364861D01*
X12646386Y15481944D01*
X12558204Y15618775D01*
X12498287Y15770109D01*
X12468902Y15930215D01*
X12471175Y16092965D01*
X12505018Y16252187D01*
X12569139Y16401791D01*
X12661101Y16536099D01*
X12777397Y16649984D01*
X12913605Y16739116D01*
X13064519Y16800089D01*
X13224411Y16830590D01*
X13387179Y16829454D01*
X13387179Y16829454D01*
G37*
M02*
