G04 #@! TF.FileFunction,Paste,Top*
%FSLAX46Y46*%
G04 Gerber Fmt 4.6, Leading zero omitted, Abs format (unit mm)*
G04 Created by KiCad (PCBNEW 4.0.7) date 02/04/18 23:39:56*
%MOMM*%
%LPD*%
G01*
G04 APERTURE LIST*
%ADD10C,0.100000*%
%ADD11R,0.540000X0.450000*%
%ADD12R,0.720000X0.675000*%
%ADD13R,0.450000X0.540000*%
%ADD14R,1.440000X0.720000*%
%ADD15R,2.700000X1.890000*%
%ADD16R,0.360000X0.540000*%
%ADD17R,0.630000X0.225000*%
%ADD18R,0.225000X0.630000*%
%ADD19R,1.035000X1.035000*%
%ADD20R,1.035000X1.260000*%
%ADD21R,0.450000X0.810000*%
G04 APERTURE END LIST*
D10*
D11*
X18350000Y9400000D03*
X17250000Y9400000D03*
D12*
X9050000Y6000000D03*
X7550000Y6000000D03*
D11*
X8050000Y7100000D03*
X6950000Y7100000D03*
D13*
X5300000Y10750000D03*
X5300000Y9650000D03*
X8700000Y3550000D03*
X8700000Y4650000D03*
D14*
X17900000Y7875000D03*
X17900000Y6625000D03*
X17900000Y5375000D03*
X17900000Y4125000D03*
D15*
X20800000Y1575000D03*
X20800000Y10425000D03*
D14*
X4900000Y4125000D03*
X4900000Y5375000D03*
X4900000Y6625000D03*
X4900000Y7875000D03*
D15*
X2000000Y10425000D03*
X2000000Y1575000D03*
D16*
X7150000Y2000000D03*
X8050000Y2000000D03*
X7150000Y1000000D03*
X8050000Y1000000D03*
X14950000Y1200000D03*
X15850000Y1200000D03*
D17*
X10300000Y10150000D03*
X10300000Y9650000D03*
X10300000Y9150000D03*
X10300000Y8650000D03*
X10300000Y8150000D03*
X10300000Y7650000D03*
X10300000Y7150000D03*
X10300000Y6650000D03*
D18*
X10950000Y6000000D03*
X11450000Y6000000D03*
X11950000Y6000000D03*
X12450000Y6000000D03*
X12950000Y6000000D03*
X13450000Y6000000D03*
X13950000Y6000000D03*
X14450000Y6000000D03*
D17*
X15100000Y6650000D03*
X15100000Y7150000D03*
X15100000Y7650000D03*
X15100000Y8150000D03*
X15100000Y8650000D03*
X15100000Y9150000D03*
X15100000Y9650000D03*
X15100000Y10150000D03*
D18*
X14450000Y10800000D03*
X13950000Y10800000D03*
X13450000Y10800000D03*
X12950000Y10800000D03*
X12450000Y10800000D03*
X11950000Y10800000D03*
X11450000Y10800000D03*
X10950000Y10800000D03*
D19*
X13562500Y7537500D03*
X13562500Y9262500D03*
X11837500Y7537500D03*
X11837500Y9262500D03*
D20*
X6700000Y8500000D03*
X6700000Y10700000D03*
X8300000Y10700000D03*
X8300000Y8500000D03*
D21*
X5850000Y1200000D03*
X4350000Y1200000D03*
X18250000Y1200000D03*
X16750000Y1200000D03*
D13*
X10700000Y1550000D03*
X10700000Y2650000D03*
M02*
