G04 #@! TF.FileFunction,Copper,L1,Top,Signal*
%FSLAX46Y46*%
G04 Gerber Fmt 4.6, Leading zero omitted, Abs format (unit mm)*
G04 Created by KiCad (PCBNEW 4.0.7) date 02/04/18 23:39:56*
%MOMM*%
%LPD*%
G01*
G04 APERTURE LIST*
%ADD10C,0.100000*%
%ADD11R,0.600000X0.500000*%
%ADD12C,4.400000*%
%ADD13R,0.800000X0.750000*%
%ADD14R,0.500000X0.600000*%
%ADD15R,1.600000X0.800000*%
%ADD16R,3.000000X2.100000*%
%ADD17R,0.400000X0.600000*%
%ADD18R,0.700000X0.250000*%
%ADD19R,0.250000X0.700000*%
%ADD20R,1.725000X1.725000*%
%ADD21R,1.150000X1.400000*%
%ADD22R,0.500000X0.900000*%
%ADD23C,1.500000*%
%ADD24R,1.500000X1.500000*%
%ADD25C,0.600000*%
%ADD26C,0.250000*%
%ADD27C,0.200000*%
%ADD28C,0.160000*%
%ADD29C,0.300000*%
%ADD30C,0.180000*%
%ADD31C,0.400000*%
G04 APERTURE END LIST*
D10*
D11*
X18350000Y9400000D03*
X17250000Y9400000D03*
D12*
X20400000Y14600000D03*
X2400000Y14600000D03*
D13*
X9050000Y6000000D03*
X7550000Y6000000D03*
D11*
X8050000Y7100000D03*
X6950000Y7100000D03*
D14*
X5300000Y10750000D03*
X5300000Y9650000D03*
X8700000Y3550000D03*
X8700000Y4650000D03*
D15*
X17900000Y7875000D03*
X17900000Y6625000D03*
X17900000Y5375000D03*
X17900000Y4125000D03*
D16*
X20800000Y1575000D03*
X20800000Y10425000D03*
D15*
X4900000Y4125000D03*
X4900000Y5375000D03*
X4900000Y6625000D03*
X4900000Y7875000D03*
D16*
X2000000Y10425000D03*
X2000000Y1575000D03*
D17*
X7150000Y2000000D03*
X8050000Y2000000D03*
X7150000Y1000000D03*
X8050000Y1000000D03*
X14950000Y1200000D03*
X15850000Y1200000D03*
D18*
X10300000Y10150000D03*
X10300000Y9650000D03*
X10300000Y9150000D03*
X10300000Y8650000D03*
X10300000Y8150000D03*
X10300000Y7650000D03*
X10300000Y7150000D03*
X10300000Y6650000D03*
D19*
X10950000Y6000000D03*
X11450000Y6000000D03*
X11950000Y6000000D03*
X12450000Y6000000D03*
X12950000Y6000000D03*
X13450000Y6000000D03*
X13950000Y6000000D03*
X14450000Y6000000D03*
D18*
X15100000Y6650000D03*
X15100000Y7150000D03*
X15100000Y7650000D03*
X15100000Y8150000D03*
X15100000Y8650000D03*
X15100000Y9150000D03*
X15100000Y9650000D03*
X15100000Y10150000D03*
D19*
X14450000Y10800000D03*
X13950000Y10800000D03*
X13450000Y10800000D03*
X12950000Y10800000D03*
X12450000Y10800000D03*
X11950000Y10800000D03*
X11450000Y10800000D03*
X10950000Y10800000D03*
D20*
X13562500Y7537500D03*
X13562500Y9262500D03*
X11837500Y7537500D03*
X11837500Y9262500D03*
D21*
X6700000Y8500000D03*
X6700000Y10700000D03*
X8300000Y10700000D03*
X8300000Y8500000D03*
D22*
X5850000Y1200000D03*
X4350000Y1200000D03*
X18250000Y1200000D03*
X16750000Y1200000D03*
D14*
X10700000Y1550000D03*
X10700000Y2650000D03*
D23*
X5300000Y16000000D03*
X7300000Y15700000D03*
X9300000Y16000000D03*
X11300000Y15700000D03*
X13300000Y16000000D03*
D24*
X17300000Y16000000D03*
D23*
X15300000Y15700000D03*
D25*
X6450000Y2000000D03*
X8450000Y5650000D03*
X9400000Y7900000D03*
X8000000Y3300000D03*
X15700000Y6100000D03*
X10900000Y4100000D03*
X10700000Y1000000D03*
X19400000Y5800000D03*
X17500000Y11300000D03*
X9600000Y10400000D03*
X5100000Y1100000D03*
X6500000Y2800000D03*
X20100000Y8800000D03*
X19200000Y2700000D03*
X16100000Y11600000D03*
X6400000Y4700000D03*
X11500000Y8700000D03*
X10800000Y3200000D03*
X17000000Y8900000D03*
X11000000Y11900000D03*
X8500000Y11900000D03*
X9500000Y8700000D03*
X15400000Y12300000D03*
X19600000Y3900000D03*
X4300000Y11600000D03*
X3200000Y4200000D03*
X19400000Y7600000D03*
X2600000Y5400000D03*
X19600000Y6600000D03*
X10400000Y5200000D03*
X8700000Y1700000D03*
X12500000Y700000D03*
X8700000Y900000D03*
X9400000Y7100000D03*
X14450000Y4800000D03*
X15530000Y1990000D03*
X15800000Y7100000D03*
X16900000Y12000000D03*
X16400000Y10400000D03*
X11900000Y5100000D03*
X10500000Y6000000D03*
X11600000Y4400000D03*
X5300000Y2100000D03*
D26*
X20300000Y6000000D02*
X20300000Y7600000D01*
X20300000Y7600000D02*
X19200000Y8700000D01*
D27*
X6450000Y2000000D02*
X7150000Y2000000D01*
D26*
X10700000Y1550000D02*
X11300000Y1550000D01*
X12450000Y2700000D02*
X12450000Y3600000D01*
X11300000Y1550000D02*
X12450000Y2700000D01*
D28*
X8450000Y5650000D02*
X8800000Y6000000D01*
X8800000Y6000000D02*
X9050000Y6000000D01*
D27*
X9400000Y7900000D02*
X8800000Y7300000D01*
D28*
X9650000Y8150000D02*
X9400000Y7900000D01*
X10300000Y8150000D02*
X9650000Y8150000D01*
D27*
X8800000Y7300000D02*
X8800000Y6250000D01*
X8800000Y6250000D02*
X9050000Y6000000D01*
D29*
X9900000Y4100000D02*
X9500000Y4500000D01*
X9500000Y5500000D02*
X9050000Y5950000D01*
X9500000Y5300000D02*
X9500000Y5500000D01*
X9500000Y4500000D02*
X9500000Y5300000D01*
X9050000Y5950000D02*
X9050000Y6000000D01*
X10900000Y4100000D02*
X9900000Y4100000D01*
X9350000Y3550000D02*
X8700000Y3550000D01*
X9900000Y4100000D02*
X9350000Y3550000D01*
X8700000Y3550000D02*
X8350000Y3550000D01*
X8350000Y3550000D02*
X8000000Y3300000D01*
X10900000Y4100000D02*
X11400000Y3600000D01*
X11400000Y3600000D02*
X12450000Y3600000D01*
X15700000Y4800000D02*
X15700000Y6100000D01*
X12450000Y3600000D02*
X14500000Y3600000D01*
X14500000Y3600000D02*
X15700000Y4800000D01*
D28*
X15100000Y6650000D02*
X15350000Y6650000D01*
X15350000Y6650000D02*
X15700000Y6300000D01*
X15700000Y6300000D02*
X15700000Y6100000D01*
X7150000Y1000000D02*
X7150000Y2000000D01*
X10700000Y1000000D02*
X10700000Y1550000D01*
D27*
X17300000Y16000000D02*
X17300000Y13200000D01*
X17500000Y13000000D02*
X17500000Y11300000D01*
X17300000Y13200000D02*
X17500000Y13000000D01*
D26*
X19050000Y8700000D02*
X18350000Y9400000D01*
X19200000Y8700000D02*
X19050000Y8700000D01*
X20100000Y5800000D02*
X20300000Y6000000D01*
X19400000Y5800000D02*
X20100000Y5800000D01*
D27*
X18350000Y9400000D02*
X18350000Y10450000D01*
X18350000Y10450000D02*
X17500000Y11300000D01*
D28*
X10300000Y10150000D02*
X9850000Y10150000D01*
X9850000Y10150000D02*
X9600000Y10400000D01*
D29*
X20400000Y4700000D02*
X21200000Y4700000D01*
X19200000Y2700000D02*
X19600000Y2700000D01*
X19600000Y2700000D02*
X21200000Y4300000D01*
X21200000Y4300000D02*
X21200000Y4700000D01*
X21200000Y4700000D02*
X21200000Y5500000D01*
D27*
X5850000Y1200000D02*
X5200000Y1200000D01*
X5200000Y1200000D02*
X5100000Y1100000D01*
D29*
X19500000Y4700000D02*
X20400000Y4700000D01*
X21200000Y5500000D02*
X21200000Y7700000D01*
X21200000Y7700000D02*
X20100000Y8800000D01*
X18825000Y5375000D02*
X17900000Y5375000D01*
X19500000Y4700000D02*
X18825000Y5375000D01*
X16100000Y11600000D02*
X16100000Y14100000D01*
X16100000Y14100000D02*
X15300000Y14900000D01*
X15300000Y14900000D02*
X15300000Y15700000D01*
D28*
X11500000Y8700000D02*
X11837500Y9037500D01*
X11837500Y9037500D02*
X11837500Y9262500D01*
X7150000Y7100000D02*
X7150000Y8050000D01*
X7150000Y8050000D02*
X6700000Y8500000D01*
X10700000Y2650000D02*
X10700000Y3100000D01*
X10700000Y3100000D02*
X10800000Y3200000D01*
X10950000Y10800000D02*
X10950000Y10150000D01*
X10950000Y10150000D02*
X11837500Y9262500D01*
X14450000Y6000000D02*
X14450000Y6650000D01*
X14450000Y6650000D02*
X13562500Y7537500D01*
X11450000Y10800000D02*
X11450000Y9650000D01*
X11450000Y9650000D02*
X11837500Y9262500D01*
X11837500Y7537500D02*
X10862500Y7537500D01*
X10750000Y7650000D02*
X10300000Y7650000D01*
X10862500Y7537500D02*
X10750000Y7650000D01*
D26*
X17250000Y9400000D02*
X17250000Y9150000D01*
X17250000Y9150000D02*
X17000000Y8900000D01*
D30*
X11450000Y10800000D02*
X11450000Y11450000D01*
X11450000Y11450000D02*
X11000000Y11900000D01*
X10950000Y11850000D02*
X10950000Y10800000D01*
X11000000Y11900000D02*
X10950000Y11850000D01*
D28*
X8500000Y10700000D02*
X8500000Y11900000D01*
X6900000Y8500000D02*
X6900000Y8600000D01*
X7150000Y8250000D02*
X6900000Y8500000D01*
X10300000Y8650000D02*
X9550000Y8650000D01*
X9550000Y8650000D02*
X9500000Y8700000D01*
X13300000Y14400000D02*
X13300000Y16000000D01*
X15400000Y12300000D02*
X13300000Y14400000D01*
D29*
X17900000Y4125000D02*
X19375000Y4125000D01*
X19375000Y4125000D02*
X19600000Y3900000D01*
D31*
X4900000Y8800000D02*
X4900000Y7875000D01*
X4300000Y11600000D02*
X4200000Y11500000D01*
X4200000Y11500000D02*
X4200000Y9500000D01*
X4200000Y9500000D02*
X4900000Y8800000D01*
D28*
X8250000Y7100000D02*
X8250000Y8450000D01*
X8250000Y8450000D02*
X8300000Y8500000D01*
X10300000Y9150000D02*
X9850000Y9150000D01*
X9100000Y9300000D02*
X8300000Y8500000D01*
X9700000Y9300000D02*
X9100000Y9300000D01*
X9850000Y9150000D02*
X9700000Y9300000D01*
X8250000Y8250000D02*
X8500000Y8500000D01*
X8500000Y8500000D02*
X8500000Y8600000D01*
X5300000Y10750000D02*
X6650000Y10750000D01*
X6650000Y10750000D02*
X6700000Y10700000D01*
X10300000Y9650000D02*
X9150000Y9650000D01*
X7500000Y9700000D02*
X6700000Y10500000D01*
X9100000Y9700000D02*
X7500000Y9700000D01*
X9150000Y9650000D02*
X9100000Y9700000D01*
X6700000Y10500000D02*
X6700000Y10700000D01*
X6550000Y10350000D02*
X6900000Y10700000D01*
X6900000Y10700000D02*
X6900000Y10600000D01*
X12300000Y14300000D02*
X12500000Y14300000D01*
X12500000Y14300000D02*
X15800000Y11000000D01*
X11300000Y15700000D02*
X11300000Y14700000D01*
X15650000Y9650000D02*
X15100000Y9650000D01*
X15800000Y9800000D02*
X15650000Y9650000D01*
X15800000Y11000000D02*
X15800000Y9800000D01*
X11700000Y14300000D02*
X12300000Y14300000D01*
X11300000Y14700000D02*
X11700000Y14300000D01*
X11900000Y13900000D02*
X12300000Y13900000D01*
X12300000Y13900000D02*
X15100000Y11100000D01*
X9300000Y16000000D02*
X9300000Y14700000D01*
X15100000Y11100000D02*
X15100000Y10150000D01*
X10100000Y13900000D02*
X11900000Y13900000D01*
X9300000Y14700000D02*
X10100000Y13900000D01*
X11400000Y13500000D02*
X11700000Y13500000D01*
X11700000Y13500000D02*
X13950000Y11250000D01*
X13950000Y10800000D02*
X13950000Y11250000D01*
X7300000Y14400000D02*
X7300000Y15700000D01*
X8200000Y13500000D02*
X7300000Y14400000D01*
X11400000Y13500000D02*
X8200000Y13500000D01*
X13450000Y10800000D02*
X13450000Y11150000D01*
X13450000Y11150000D02*
X11500000Y13100000D01*
X5300000Y14500000D02*
X5300000Y16000000D01*
X6700000Y13100000D02*
X5300000Y14500000D01*
X11500000Y13100000D02*
X6700000Y13100000D01*
D30*
X17900000Y7875000D02*
X19125000Y7875000D01*
X3275000Y4125000D02*
X4900000Y4125000D01*
X3200000Y4200000D02*
X3275000Y4125000D01*
X19125000Y7875000D02*
X19400000Y7600000D01*
X17900000Y6625000D02*
X19575000Y6625000D01*
X2625000Y5375000D02*
X4900000Y5375000D01*
X2600000Y5400000D02*
X2625000Y5375000D01*
X19575000Y6625000D02*
X19600000Y6600000D01*
D28*
X11450000Y5450000D02*
X11450000Y6000000D01*
X11200000Y5200000D02*
X11450000Y5450000D01*
X10900000Y5200000D02*
X11200000Y5200000D01*
X10400000Y5200000D02*
X10900000Y5200000D01*
X15100000Y7650000D02*
X16250000Y7650000D01*
X9200000Y1700000D02*
X8700000Y1700000D01*
X10500000Y400000D02*
X9200000Y1700000D01*
X11000000Y400000D02*
X10500000Y400000D01*
X11900000Y1300000D02*
X11000000Y400000D01*
X13300000Y1300000D02*
X11900000Y1300000D01*
X16400000Y4400000D02*
X13300000Y1300000D01*
X16400000Y7500000D02*
X16400000Y4400000D01*
X16250000Y7650000D02*
X16400000Y7500000D01*
X8400000Y2000000D02*
X8050000Y2000000D01*
X8700000Y1700000D02*
X8400000Y2000000D01*
X15100000Y8150000D02*
X16350000Y8150000D01*
X13200000Y700000D02*
X12500000Y700000D01*
X16800000Y4300000D02*
X13200000Y700000D01*
X16800000Y7700000D02*
X16800000Y4300000D01*
X16350000Y8150000D02*
X16800000Y7700000D01*
X8600000Y1000000D02*
X8050000Y1000000D01*
X8700000Y900000D02*
X8600000Y1000000D01*
X10300000Y7150000D02*
X9450000Y7150000D01*
X9450000Y7150000D02*
X9400000Y7100000D01*
X12950000Y5350000D02*
X13500000Y4800000D01*
X13500000Y4800000D02*
X14450000Y4800000D01*
X12950000Y6000000D02*
X12950000Y5350000D01*
X14950000Y1770000D02*
X14950000Y1200000D01*
X15140000Y1960000D02*
X14950000Y1770000D01*
X15500000Y1960000D02*
X15140000Y1960000D01*
X15530000Y1990000D02*
X15500000Y1960000D01*
X15100000Y7150000D02*
X15750000Y7150000D01*
X15750000Y7150000D02*
X15800000Y7100000D01*
X15100000Y8650000D02*
X15850000Y8650000D01*
X16900000Y11100000D02*
X16900000Y12000000D01*
X17100000Y10900000D02*
X16900000Y11100000D01*
X17100000Y10300000D02*
X17100000Y10900000D01*
X16600000Y9800000D02*
X17100000Y10300000D01*
X16600000Y9400000D02*
X16600000Y9800000D01*
X15850000Y8650000D02*
X16600000Y9400000D01*
X15750000Y9150000D02*
X15100000Y9150000D01*
X16200000Y9600000D02*
X15750000Y9150000D01*
X16200000Y10200000D02*
X16200000Y9600000D01*
X16400000Y10400000D02*
X16200000Y10200000D01*
X11950000Y6000000D02*
X11950000Y5150000D01*
X11950000Y5150000D02*
X11900000Y5100000D01*
X10500000Y6000000D02*
X10950000Y6000000D01*
X12000000Y4400000D02*
X12450000Y4850000D01*
X11800000Y4400000D02*
X12000000Y4400000D01*
X11600000Y4400000D02*
X11800000Y4400000D01*
X12450000Y6000000D02*
X12450000Y4850000D01*
D27*
X4350000Y1200000D02*
X4350000Y1750000D01*
X4700000Y2100000D02*
X5300000Y2100000D01*
X4350000Y1750000D02*
X4700000Y2100000D01*
D28*
X15850000Y1200000D02*
X16750000Y1200000D01*
G36*
X4942668Y1566224D02*
X5174136Y1470110D01*
X5270000Y1470026D01*
X5270000Y1302500D01*
X5352500Y1220000D01*
X5830000Y1220000D01*
X5830000Y1240000D01*
X5870000Y1240000D01*
X5870000Y1220000D01*
X6347500Y1220000D01*
X6430000Y1302500D01*
X6430000Y1370017D01*
X6574765Y1369891D01*
X6632521Y1393755D01*
X6613535Y1300000D01*
X6613535Y700000D01*
X6636546Y577709D01*
X6708819Y465393D01*
X6819096Y390044D01*
X6868694Y380000D01*
X3797129Y380000D01*
X3830000Y459359D01*
X3830000Y560179D01*
X3858819Y515393D01*
X3969096Y440044D01*
X4100000Y413535D01*
X4600000Y413535D01*
X4722291Y436546D01*
X4834607Y508819D01*
X4909956Y619096D01*
X4936465Y750000D01*
X4936465Y1097500D01*
X5270000Y1097500D01*
X5270000Y684359D01*
X5320240Y563070D01*
X5413070Y470239D01*
X5534359Y420000D01*
X5747500Y420000D01*
X5830000Y502500D01*
X5830000Y1180000D01*
X5870000Y1180000D01*
X5870000Y502500D01*
X5952500Y420000D01*
X6165641Y420000D01*
X6286930Y470239D01*
X6379760Y563070D01*
X6430000Y684359D01*
X6430000Y1097500D01*
X6347500Y1180000D01*
X5870000Y1180000D01*
X5830000Y1180000D01*
X5352500Y1180000D01*
X5270000Y1097500D01*
X4936465Y1097500D01*
X4936465Y1572438D01*
X4942668Y1566224D01*
X4942668Y1566224D01*
G37*
X4942668Y1566224D02*
X5174136Y1470110D01*
X5270000Y1470026D01*
X5270000Y1302500D01*
X5352500Y1220000D01*
X5830000Y1220000D01*
X5830000Y1240000D01*
X5870000Y1240000D01*
X5870000Y1220000D01*
X6347500Y1220000D01*
X6430000Y1302500D01*
X6430000Y1370017D01*
X6574765Y1369891D01*
X6632521Y1393755D01*
X6613535Y1300000D01*
X6613535Y700000D01*
X6636546Y577709D01*
X6708819Y465393D01*
X6819096Y390044D01*
X6868694Y380000D01*
X3797129Y380000D01*
X3830000Y459359D01*
X3830000Y560179D01*
X3858819Y515393D01*
X3969096Y440044D01*
X4100000Y413535D01*
X4600000Y413535D01*
X4722291Y436546D01*
X4834607Y508819D01*
X4909956Y619096D01*
X4936465Y750000D01*
X4936465Y1097500D01*
X5270000Y1097500D01*
X5270000Y684359D01*
X5320240Y563070D01*
X5413070Y470239D01*
X5534359Y420000D01*
X5747500Y420000D01*
X5830000Y502500D01*
X5830000Y1180000D01*
X5870000Y1180000D01*
X5870000Y502500D01*
X5952500Y420000D01*
X6165641Y420000D01*
X6286930Y470239D01*
X6379760Y563070D01*
X6430000Y684359D01*
X6430000Y1097500D01*
X6347500Y1180000D01*
X5870000Y1180000D01*
X5830000Y1180000D01*
X5352500Y1180000D01*
X5270000Y1097500D01*
X4936465Y1097500D01*
X4936465Y1572438D01*
X4942668Y1566224D01*
G36*
X18648506Y16379778D02*
X20400000Y14628284D01*
X20414143Y14642426D01*
X20442427Y14614142D01*
X20428284Y14600000D01*
X22179778Y12848506D01*
X22420000Y13037991D01*
X22420000Y11782484D01*
X22365641Y11805000D01*
X20902500Y11805000D01*
X20820000Y11722500D01*
X20820000Y10445000D01*
X20840000Y10445000D01*
X20840000Y10405000D01*
X20820000Y10405000D01*
X20820000Y9127500D01*
X20902500Y9045000D01*
X22365641Y9045000D01*
X22420000Y9067516D01*
X22420000Y2932484D01*
X22365641Y2955000D01*
X20902500Y2955000D01*
X20820000Y2872500D01*
X20820000Y1595000D01*
X20840000Y1595000D01*
X20840000Y1555000D01*
X20820000Y1555000D01*
X20820000Y1535000D01*
X20780000Y1535000D01*
X20780000Y1555000D01*
X19052500Y1555000D01*
X18970000Y1472500D01*
X18970000Y459359D01*
X19002871Y380000D01*
X13444887Y380000D01*
X13489914Y410086D01*
X14413535Y1333707D01*
X14413535Y900000D01*
X14436546Y777709D01*
X14508819Y665393D01*
X14619096Y590044D01*
X14750000Y563535D01*
X15150000Y563535D01*
X15272291Y586546D01*
X15384607Y658819D01*
X15399255Y680257D01*
X15408819Y665393D01*
X15519096Y590044D01*
X15650000Y563535D01*
X16050000Y563535D01*
X16172291Y586546D01*
X16201103Y605086D01*
X16258819Y515393D01*
X16369096Y440044D01*
X16500000Y413535D01*
X17000000Y413535D01*
X17122291Y436546D01*
X17234607Y508819D01*
X17309956Y619096D01*
X17336465Y750000D01*
X17336465Y1097500D01*
X17670000Y1097500D01*
X17670000Y684359D01*
X17720240Y563070D01*
X17813070Y470239D01*
X17934359Y420000D01*
X18147500Y420000D01*
X18230000Y502500D01*
X18230000Y1180000D01*
X18270000Y1180000D01*
X18270000Y502500D01*
X18352500Y420000D01*
X18565641Y420000D01*
X18686930Y470239D01*
X18779760Y563070D01*
X18830000Y684359D01*
X18830000Y1097500D01*
X18747500Y1180000D01*
X18270000Y1180000D01*
X18230000Y1180000D01*
X17752500Y1180000D01*
X17670000Y1097500D01*
X17336465Y1097500D01*
X17336465Y1650000D01*
X17324114Y1715641D01*
X17670000Y1715641D01*
X17670000Y1302500D01*
X17752500Y1220000D01*
X18230000Y1220000D01*
X18230000Y1897500D01*
X18270000Y1897500D01*
X18270000Y1220000D01*
X18747500Y1220000D01*
X18830000Y1302500D01*
X18830000Y1715641D01*
X18779760Y1836930D01*
X18686930Y1929761D01*
X18565641Y1980000D01*
X18352500Y1980000D01*
X18270000Y1897500D01*
X18230000Y1897500D01*
X18147500Y1980000D01*
X17934359Y1980000D01*
X17813070Y1929761D01*
X17720240Y1836930D01*
X17670000Y1715641D01*
X17324114Y1715641D01*
X17313454Y1772291D01*
X17241181Y1884607D01*
X17130904Y1959956D01*
X17000000Y1986465D01*
X16500000Y1986465D01*
X16377709Y1963454D01*
X16265393Y1891181D01*
X16200668Y1796452D01*
X16180904Y1809956D01*
X16140767Y1818084D01*
X16159890Y1864136D01*
X16160109Y2114765D01*
X16064399Y2346400D01*
X15887332Y2523776D01*
X15686851Y2607023D01*
X15770469Y2690641D01*
X18970000Y2690641D01*
X18970000Y1677500D01*
X19052500Y1595000D01*
X20780000Y1595000D01*
X20780000Y2872500D01*
X20697500Y2955000D01*
X19234359Y2955000D01*
X19113070Y2904760D01*
X19020239Y2811930D01*
X18970000Y2690641D01*
X15770469Y2690641D01*
X16770074Y3690246D01*
X16786546Y3602709D01*
X16858819Y3490393D01*
X16969096Y3415044D01*
X17100000Y3388535D01*
X18700000Y3388535D01*
X18822291Y3411546D01*
X18934607Y3483819D01*
X19009956Y3594096D01*
X19020264Y3645000D01*
X19023703Y3645000D01*
X19065601Y3543600D01*
X19242668Y3366224D01*
X19474136Y3270110D01*
X19724765Y3269891D01*
X19956400Y3365601D01*
X20133776Y3542668D01*
X20229890Y3774136D01*
X20230109Y4024765D01*
X20134399Y4256400D01*
X19957332Y4433776D01*
X19725864Y4529890D01*
X19616272Y4529986D01*
X19558688Y4568462D01*
X19375000Y4605000D01*
X19021412Y4605000D01*
X19013454Y4647291D01*
X18945142Y4753451D01*
X18979761Y4788070D01*
X19030000Y4909359D01*
X19030000Y5272500D01*
X18947502Y5354998D01*
X18954048Y5354998D01*
X19042668Y5266224D01*
X19274136Y5170110D01*
X19524765Y5169891D01*
X19756400Y5265601D01*
X19835938Y5345000D01*
X20099995Y5345000D01*
X20100000Y5344999D01*
X20274121Y5379635D01*
X20421734Y5478266D01*
X20621731Y5678264D01*
X20621734Y5678266D01*
X20720365Y5825879D01*
X20723301Y5840641D01*
X20755001Y6000000D01*
X20755000Y6000005D01*
X20755000Y7599995D01*
X20755001Y7600000D01*
X20720365Y7774121D01*
X20621734Y7921734D01*
X19521734Y9021734D01*
X19486914Y9045000D01*
X20697500Y9045000D01*
X20780000Y9127500D01*
X20780000Y10405000D01*
X19052500Y10405000D01*
X18970000Y10322500D01*
X18970000Y9737503D01*
X18963454Y9772291D01*
X18891181Y9884607D01*
X18780904Y9959956D01*
X18780000Y9960139D01*
X18780000Y10450000D01*
X18747268Y10614554D01*
X18654056Y10754056D01*
X18129981Y11278131D01*
X18130109Y11424765D01*
X18082230Y11540641D01*
X18970000Y11540641D01*
X18970000Y10527500D01*
X19052500Y10445000D01*
X20780000Y10445000D01*
X20780000Y11722500D01*
X20697500Y11805000D01*
X19234359Y11805000D01*
X19113070Y11754760D01*
X19020239Y11661930D01*
X18970000Y11540641D01*
X18082230Y11540641D01*
X18034399Y11656400D01*
X17930000Y11760981D01*
X17930000Y12820222D01*
X18648506Y12820222D01*
X18899995Y12501394D01*
X19817278Y12087114D01*
X20823276Y12055398D01*
X21764833Y12411075D01*
X21900005Y12501394D01*
X22151494Y12820222D01*
X20400000Y14571716D01*
X18648506Y12820222D01*
X17930000Y12820222D01*
X17930000Y13000000D01*
X17897268Y13164554D01*
X17804056Y13304056D01*
X17730000Y13378112D01*
X17730000Y14913535D01*
X17878627Y14913535D01*
X17855398Y14176724D01*
X18211075Y13235167D01*
X18301394Y13099995D01*
X18620222Y12848506D01*
X20371716Y14600000D01*
X18620222Y16351494D01*
X18386465Y16167108D01*
X18386465Y16620000D01*
X18837991Y16620000D01*
X18648506Y16379778D01*
X18648506Y16379778D01*
G37*
X18648506Y16379778D02*
X20400000Y14628284D01*
X20414143Y14642426D01*
X20442427Y14614142D01*
X20428284Y14600000D01*
X22179778Y12848506D01*
X22420000Y13037991D01*
X22420000Y11782484D01*
X22365641Y11805000D01*
X20902500Y11805000D01*
X20820000Y11722500D01*
X20820000Y10445000D01*
X20840000Y10445000D01*
X20840000Y10405000D01*
X20820000Y10405000D01*
X20820000Y9127500D01*
X20902500Y9045000D01*
X22365641Y9045000D01*
X22420000Y9067516D01*
X22420000Y2932484D01*
X22365641Y2955000D01*
X20902500Y2955000D01*
X20820000Y2872500D01*
X20820000Y1595000D01*
X20840000Y1595000D01*
X20840000Y1555000D01*
X20820000Y1555000D01*
X20820000Y1535000D01*
X20780000Y1535000D01*
X20780000Y1555000D01*
X19052500Y1555000D01*
X18970000Y1472500D01*
X18970000Y459359D01*
X19002871Y380000D01*
X13444887Y380000D01*
X13489914Y410086D01*
X14413535Y1333707D01*
X14413535Y900000D01*
X14436546Y777709D01*
X14508819Y665393D01*
X14619096Y590044D01*
X14750000Y563535D01*
X15150000Y563535D01*
X15272291Y586546D01*
X15384607Y658819D01*
X15399255Y680257D01*
X15408819Y665393D01*
X15519096Y590044D01*
X15650000Y563535D01*
X16050000Y563535D01*
X16172291Y586546D01*
X16201103Y605086D01*
X16258819Y515393D01*
X16369096Y440044D01*
X16500000Y413535D01*
X17000000Y413535D01*
X17122291Y436546D01*
X17234607Y508819D01*
X17309956Y619096D01*
X17336465Y750000D01*
X17336465Y1097500D01*
X17670000Y1097500D01*
X17670000Y684359D01*
X17720240Y563070D01*
X17813070Y470239D01*
X17934359Y420000D01*
X18147500Y420000D01*
X18230000Y502500D01*
X18230000Y1180000D01*
X18270000Y1180000D01*
X18270000Y502500D01*
X18352500Y420000D01*
X18565641Y420000D01*
X18686930Y470239D01*
X18779760Y563070D01*
X18830000Y684359D01*
X18830000Y1097500D01*
X18747500Y1180000D01*
X18270000Y1180000D01*
X18230000Y1180000D01*
X17752500Y1180000D01*
X17670000Y1097500D01*
X17336465Y1097500D01*
X17336465Y1650000D01*
X17324114Y1715641D01*
X17670000Y1715641D01*
X17670000Y1302500D01*
X17752500Y1220000D01*
X18230000Y1220000D01*
X18230000Y1897500D01*
X18270000Y1897500D01*
X18270000Y1220000D01*
X18747500Y1220000D01*
X18830000Y1302500D01*
X18830000Y1715641D01*
X18779760Y1836930D01*
X18686930Y1929761D01*
X18565641Y1980000D01*
X18352500Y1980000D01*
X18270000Y1897500D01*
X18230000Y1897500D01*
X18147500Y1980000D01*
X17934359Y1980000D01*
X17813070Y1929761D01*
X17720240Y1836930D01*
X17670000Y1715641D01*
X17324114Y1715641D01*
X17313454Y1772291D01*
X17241181Y1884607D01*
X17130904Y1959956D01*
X17000000Y1986465D01*
X16500000Y1986465D01*
X16377709Y1963454D01*
X16265393Y1891181D01*
X16200668Y1796452D01*
X16180904Y1809956D01*
X16140767Y1818084D01*
X16159890Y1864136D01*
X16160109Y2114765D01*
X16064399Y2346400D01*
X15887332Y2523776D01*
X15686851Y2607023D01*
X15770469Y2690641D01*
X18970000Y2690641D01*
X18970000Y1677500D01*
X19052500Y1595000D01*
X20780000Y1595000D01*
X20780000Y2872500D01*
X20697500Y2955000D01*
X19234359Y2955000D01*
X19113070Y2904760D01*
X19020239Y2811930D01*
X18970000Y2690641D01*
X15770469Y2690641D01*
X16770074Y3690246D01*
X16786546Y3602709D01*
X16858819Y3490393D01*
X16969096Y3415044D01*
X17100000Y3388535D01*
X18700000Y3388535D01*
X18822291Y3411546D01*
X18934607Y3483819D01*
X19009956Y3594096D01*
X19020264Y3645000D01*
X19023703Y3645000D01*
X19065601Y3543600D01*
X19242668Y3366224D01*
X19474136Y3270110D01*
X19724765Y3269891D01*
X19956400Y3365601D01*
X20133776Y3542668D01*
X20229890Y3774136D01*
X20230109Y4024765D01*
X20134399Y4256400D01*
X19957332Y4433776D01*
X19725864Y4529890D01*
X19616272Y4529986D01*
X19558688Y4568462D01*
X19375000Y4605000D01*
X19021412Y4605000D01*
X19013454Y4647291D01*
X18945142Y4753451D01*
X18979761Y4788070D01*
X19030000Y4909359D01*
X19030000Y5272500D01*
X18947502Y5354998D01*
X18954048Y5354998D01*
X19042668Y5266224D01*
X19274136Y5170110D01*
X19524765Y5169891D01*
X19756400Y5265601D01*
X19835938Y5345000D01*
X20099995Y5345000D01*
X20100000Y5344999D01*
X20274121Y5379635D01*
X20421734Y5478266D01*
X20621731Y5678264D01*
X20621734Y5678266D01*
X20720365Y5825879D01*
X20723301Y5840641D01*
X20755001Y6000000D01*
X20755000Y6000005D01*
X20755000Y7599995D01*
X20755001Y7600000D01*
X20720365Y7774121D01*
X20621734Y7921734D01*
X19521734Y9021734D01*
X19486914Y9045000D01*
X20697500Y9045000D01*
X20780000Y9127500D01*
X20780000Y10405000D01*
X19052500Y10405000D01*
X18970000Y10322500D01*
X18970000Y9737503D01*
X18963454Y9772291D01*
X18891181Y9884607D01*
X18780904Y9959956D01*
X18780000Y9960139D01*
X18780000Y10450000D01*
X18747268Y10614554D01*
X18654056Y10754056D01*
X18129981Y11278131D01*
X18130109Y11424765D01*
X18082230Y11540641D01*
X18970000Y11540641D01*
X18970000Y10527500D01*
X19052500Y10445000D01*
X20780000Y10445000D01*
X20780000Y11722500D01*
X20697500Y11805000D01*
X19234359Y11805000D01*
X19113070Y11754760D01*
X19020239Y11661930D01*
X18970000Y11540641D01*
X18082230Y11540641D01*
X18034399Y11656400D01*
X17930000Y11760981D01*
X17930000Y12820222D01*
X18648506Y12820222D01*
X18899995Y12501394D01*
X19817278Y12087114D01*
X20823276Y12055398D01*
X21764833Y12411075D01*
X21900005Y12501394D01*
X22151494Y12820222D01*
X20400000Y14571716D01*
X18648506Y12820222D01*
X17930000Y12820222D01*
X17930000Y13000000D01*
X17897268Y13164554D01*
X17804056Y13304056D01*
X17730000Y13378112D01*
X17730000Y14913535D01*
X17878627Y14913535D01*
X17855398Y14176724D01*
X18211075Y13235167D01*
X18301394Y13099995D01*
X18620222Y12848506D01*
X20371716Y14600000D01*
X18620222Y16351494D01*
X18386465Y16167108D01*
X18386465Y16620000D01*
X18837991Y16620000D01*
X18648506Y16379778D01*
G36*
X4384955Y16612569D02*
X4252671Y16293996D01*
X4179778Y16351494D01*
X2428284Y14600000D01*
X4179778Y12848506D01*
X4498606Y13099995D01*
X4912886Y14017278D01*
X4923070Y14340313D01*
X5010086Y14210086D01*
X6410086Y12810086D01*
X6543099Y12721209D01*
X6700000Y12690000D01*
X11330172Y12690000D01*
X12533708Y11486465D01*
X12325000Y11486465D01*
X12202709Y11463454D01*
X12199339Y11461285D01*
X12075000Y11486465D01*
X11825000Y11486465D01*
X11702709Y11463454D01*
X11694045Y11457879D01*
X11640641Y11480000D01*
X11552500Y11480000D01*
X11470000Y11397500D01*
X11470000Y10820000D01*
X11488535Y10820000D01*
X11488535Y10780000D01*
X11470000Y10780000D01*
X11470000Y10760000D01*
X11430000Y10760000D01*
X11430000Y10780000D01*
X10970000Y10780000D01*
X10970000Y10760000D01*
X10930000Y10760000D01*
X10930000Y10780000D01*
X10577500Y10780000D01*
X10495000Y10697500D01*
X10495000Y10611465D01*
X10194285Y10611465D01*
X10134399Y10756400D01*
X9957332Y10933776D01*
X9725864Y11029890D01*
X9475235Y11030109D01*
X9243600Y10934399D01*
X9205000Y10895866D01*
X9205000Y11215641D01*
X10495000Y11215641D01*
X10495000Y10902500D01*
X10577500Y10820000D01*
X10930000Y10820000D01*
X10930000Y11397500D01*
X10970000Y11397500D01*
X10970000Y10820000D01*
X11430000Y10820000D01*
X11430000Y11397500D01*
X11347500Y11480000D01*
X11259359Y11480000D01*
X11200000Y11455412D01*
X11140641Y11480000D01*
X11052500Y11480000D01*
X10970000Y11397500D01*
X10930000Y11397500D01*
X10847500Y11480000D01*
X10759359Y11480000D01*
X10638070Y11429760D01*
X10545239Y11336930D01*
X10495000Y11215641D01*
X9205000Y11215641D01*
X9205000Y11465641D01*
X9154761Y11586930D01*
X9061930Y11679760D01*
X8940641Y11730000D01*
X8402500Y11730000D01*
X8320000Y11647500D01*
X8320000Y10720000D01*
X8340000Y10720000D01*
X8340000Y10680000D01*
X8320000Y10680000D01*
X8320000Y10660000D01*
X8280000Y10660000D01*
X8280000Y10680000D01*
X8260000Y10680000D01*
X8260000Y10720000D01*
X8280000Y10720000D01*
X8280000Y11647500D01*
X8197500Y11730000D01*
X7659359Y11730000D01*
X7538070Y11679760D01*
X7502360Y11644050D01*
X7405904Y11709956D01*
X7275000Y11736465D01*
X6125000Y11736465D01*
X6002709Y11713454D01*
X5890393Y11641181D01*
X5815044Y11530904D01*
X5788535Y11400000D01*
X5788535Y11286415D01*
X5680904Y11359956D01*
X5550000Y11386465D01*
X5050000Y11386465D01*
X4927709Y11363454D01*
X4867968Y11325012D01*
X4929890Y11474136D01*
X4930109Y11724765D01*
X4834399Y11956400D01*
X4657332Y12133776D01*
X4425864Y12229890D01*
X4175235Y12230109D01*
X3943600Y12134399D01*
X3766224Y11957332D01*
X3682816Y11756464D01*
X3565641Y11805000D01*
X2102500Y11805000D01*
X2020000Y11722500D01*
X2020000Y10445000D01*
X2040000Y10445000D01*
X2040000Y10405000D01*
X2020000Y10405000D01*
X2020000Y9127500D01*
X2102500Y9045000D01*
X3565641Y9045000D01*
X3686930Y9095240D01*
X3779761Y9188070D01*
X3781095Y9191291D01*
X3825233Y9125233D01*
X4339002Y8611465D01*
X4100000Y8611465D01*
X3977709Y8588454D01*
X3865393Y8516181D01*
X3790044Y8405904D01*
X3763535Y8275000D01*
X3763535Y7475000D01*
X3786546Y7352709D01*
X3854858Y7246549D01*
X3820239Y7211930D01*
X3770000Y7090641D01*
X3770000Y6727500D01*
X3852500Y6645000D01*
X4880000Y6645000D01*
X4880000Y6665000D01*
X4920000Y6665000D01*
X4920000Y6645000D01*
X5947500Y6645000D01*
X6030000Y6727500D01*
X6030000Y7090641D01*
X5979761Y7211930D01*
X5944051Y7247640D01*
X6009956Y7344096D01*
X6036465Y7475000D01*
X6036465Y7479483D01*
X6059359Y7470000D01*
X6342516Y7470000D01*
X6320000Y7415641D01*
X6320000Y7202500D01*
X6402500Y7120000D01*
X6930000Y7120000D01*
X6930000Y7140000D01*
X6970000Y7140000D01*
X6970000Y7120000D01*
X6990000Y7120000D01*
X6990000Y7080000D01*
X6970000Y7080000D01*
X6970000Y7060000D01*
X6930000Y7060000D01*
X6930000Y7080000D01*
X6402500Y7080000D01*
X6320000Y6997500D01*
X6320000Y6784359D01*
X6370240Y6663070D01*
X6463070Y6570239D01*
X6584359Y6520000D01*
X6847500Y6520000D01*
X6856670Y6529170D01*
X6820000Y6440641D01*
X6820000Y6102500D01*
X6902500Y6020000D01*
X7530000Y6020000D01*
X7530000Y6040000D01*
X7570000Y6040000D01*
X7570000Y6020000D01*
X7590000Y6020000D01*
X7590000Y5980000D01*
X7570000Y5980000D01*
X7570000Y5377500D01*
X7652500Y5295000D01*
X7915023Y5295000D01*
X7915601Y5293600D01*
X8092668Y5116224D01*
X8151537Y5091779D01*
X8120000Y5015641D01*
X8120000Y4752500D01*
X8202500Y4670000D01*
X8680000Y4670000D01*
X8680000Y4690000D01*
X8720000Y4690000D01*
X8720000Y4670000D01*
X8740000Y4670000D01*
X8740000Y4630000D01*
X8720000Y4630000D01*
X8720000Y4610000D01*
X8680000Y4610000D01*
X8680000Y4630000D01*
X8202500Y4630000D01*
X8120000Y4547500D01*
X8120000Y4284359D01*
X8170239Y4163070D01*
X8231661Y4101649D01*
X8215393Y4091181D01*
X8140044Y3980904D01*
X8138874Y3975129D01*
X8120848Y3963084D01*
X8071005Y3940592D01*
X8056108Y3929951D01*
X7875235Y3930109D01*
X7643600Y3834399D01*
X7466224Y3657332D01*
X7370110Y3425864D01*
X7369891Y3175235D01*
X7465601Y2943600D01*
X7642668Y2766224D01*
X7874136Y2670110D01*
X8124765Y2669891D01*
X8356400Y2765601D01*
X8504592Y2913535D01*
X8950000Y2913535D01*
X9072291Y2936546D01*
X9184607Y3008819D01*
X9189268Y3015641D01*
X10120000Y3015641D01*
X10120000Y2752500D01*
X10202500Y2670000D01*
X10680000Y2670000D01*
X10680000Y3197500D01*
X10597500Y3280000D01*
X10384359Y3280000D01*
X10263070Y3229760D01*
X10170239Y3136930D01*
X10120000Y3015641D01*
X9189268Y3015641D01*
X9226410Y3070000D01*
X9350000Y3070000D01*
X9533688Y3106538D01*
X9689411Y3210589D01*
X10098823Y3620000D01*
X10488986Y3620000D01*
X10542668Y3566224D01*
X10774136Y3470110D01*
X10851135Y3470043D01*
X11059236Y3261942D01*
X11015641Y3280000D01*
X10802500Y3280000D01*
X10720000Y3197500D01*
X10720000Y2670000D01*
X11197500Y2670000D01*
X11280000Y2752500D01*
X11280000Y3015641D01*
X11229761Y3136930D01*
X11197750Y3168941D01*
X11216312Y3156538D01*
X11400000Y3120000D01*
X11995000Y3120000D01*
X11995000Y2888467D01*
X11191156Y2084624D01*
X11167487Y2100797D01*
X11229761Y2163070D01*
X11280000Y2284359D01*
X11280000Y2547500D01*
X11197500Y2630000D01*
X10720000Y2630000D01*
X10720000Y2610000D01*
X10680000Y2610000D01*
X10680000Y2630000D01*
X10202500Y2630000D01*
X10120000Y2547500D01*
X10120000Y2284359D01*
X10170239Y2163070D01*
X10231661Y2101649D01*
X10215393Y2091181D01*
X10140044Y1980904D01*
X10113535Y1850000D01*
X10113535Y1366293D01*
X9489914Y1989914D01*
X9356901Y2078791D01*
X9200000Y2110000D01*
X9180892Y2110000D01*
X9057332Y2233776D01*
X8825864Y2329890D01*
X8629830Y2330061D01*
X8573759Y2367527D01*
X8563454Y2422291D01*
X8491181Y2534607D01*
X8380904Y2609956D01*
X8250000Y2636465D01*
X7850000Y2636465D01*
X7727709Y2613454D01*
X7615393Y2541181D01*
X7600745Y2519743D01*
X7591181Y2534607D01*
X7480904Y2609956D01*
X7350000Y2636465D01*
X6950000Y2636465D01*
X6827709Y2613454D01*
X6744458Y2559884D01*
X6575864Y2629890D01*
X6325235Y2630109D01*
X6093600Y2534399D01*
X5916224Y2357332D01*
X5895728Y2307973D01*
X5834399Y2456400D01*
X5657332Y2633776D01*
X5425864Y2729890D01*
X5175235Y2730109D01*
X4943600Y2634399D01*
X4839019Y2530000D01*
X4700000Y2530000D01*
X4535446Y2497268D01*
X4474283Y2456400D01*
X4395944Y2404056D01*
X4045944Y2054056D01*
X3986513Y1965111D01*
X3977709Y1963454D01*
X3865393Y1891181D01*
X3830000Y1839382D01*
X3830000Y2690641D01*
X3779761Y2811930D01*
X3686930Y2904760D01*
X3565641Y2955000D01*
X2102500Y2955000D01*
X2020000Y2872500D01*
X2020000Y1595000D01*
X2040000Y1595000D01*
X2040000Y1555000D01*
X2020000Y1555000D01*
X2020000Y1535000D01*
X1980000Y1535000D01*
X1980000Y1555000D01*
X1960000Y1555000D01*
X1960000Y1595000D01*
X1980000Y1595000D01*
X1980000Y2872500D01*
X1897500Y2955000D01*
X434359Y2955000D01*
X380000Y2932484D01*
X380000Y5275235D01*
X1969891Y5275235D01*
X2065601Y5043600D01*
X2242668Y4866224D01*
X2474136Y4770110D01*
X2724765Y4769891D01*
X2956400Y4865601D01*
X3045955Y4955000D01*
X3767298Y4955000D01*
X3786546Y4852709D01*
X3853462Y4748719D01*
X3790044Y4655904D01*
X3767585Y4545000D01*
X3739109Y4545000D01*
X3734399Y4556400D01*
X3557332Y4733776D01*
X3325864Y4829890D01*
X3075235Y4830109D01*
X2843600Y4734399D01*
X2666224Y4557332D01*
X2570110Y4325864D01*
X2569891Y4075235D01*
X2665601Y3843600D01*
X2842668Y3666224D01*
X3074136Y3570110D01*
X3324765Y3569891D01*
X3556400Y3665601D01*
X3595868Y3705000D01*
X3767298Y3705000D01*
X3786546Y3602709D01*
X3858819Y3490393D01*
X3969096Y3415044D01*
X4100000Y3388535D01*
X5700000Y3388535D01*
X5822291Y3411546D01*
X5934607Y3483819D01*
X6009956Y3594096D01*
X6036465Y3725000D01*
X6036465Y4525000D01*
X6013454Y4647291D01*
X5946538Y4751281D01*
X6009956Y4844096D01*
X6036465Y4975000D01*
X6036465Y5775000D01*
X6013454Y5897291D01*
X6013320Y5897500D01*
X6820000Y5897500D01*
X6820000Y5559359D01*
X6870240Y5438070D01*
X6963070Y5345239D01*
X7084359Y5295000D01*
X7447500Y5295000D01*
X7530000Y5377500D01*
X7530000Y5980000D01*
X6902500Y5980000D01*
X6820000Y5897500D01*
X6013320Y5897500D01*
X5945142Y6003451D01*
X5979761Y6038070D01*
X6030000Y6159359D01*
X6030000Y6522500D01*
X5947500Y6605000D01*
X4920000Y6605000D01*
X4920000Y6585000D01*
X4880000Y6585000D01*
X4880000Y6605000D01*
X3852500Y6605000D01*
X3770000Y6522500D01*
X3770000Y6159359D01*
X3820239Y6038070D01*
X3855949Y6002360D01*
X3790044Y5905904D01*
X3767585Y5795000D01*
X3095866Y5795000D01*
X2957332Y5933776D01*
X2725864Y6029890D01*
X2475235Y6030109D01*
X2243600Y5934399D01*
X2066224Y5757332D01*
X1970110Y5525864D01*
X1969891Y5275235D01*
X380000Y5275235D01*
X380000Y9067516D01*
X434359Y9045000D01*
X1897500Y9045000D01*
X1980000Y9127500D01*
X1980000Y10405000D01*
X1960000Y10405000D01*
X1960000Y10445000D01*
X1980000Y10445000D01*
X1980000Y11722500D01*
X1897500Y11805000D01*
X434359Y11805000D01*
X380000Y11782484D01*
X380000Y12820222D01*
X648506Y12820222D01*
X899995Y12501394D01*
X1817278Y12087114D01*
X2823276Y12055398D01*
X3764833Y12411075D01*
X3900005Y12501394D01*
X4151494Y12820222D01*
X2400000Y14571716D01*
X648506Y12820222D01*
X380000Y12820222D01*
X380000Y13037991D01*
X620222Y12848506D01*
X2371716Y14600000D01*
X2357574Y14614142D01*
X2385858Y14642426D01*
X2400000Y14628284D01*
X4151494Y16379778D01*
X3962009Y16620000D01*
X4392399Y16620000D01*
X4384955Y16612569D01*
X4384955Y16612569D01*
G37*
X4384955Y16612569D02*
X4252671Y16293996D01*
X4179778Y16351494D01*
X2428284Y14600000D01*
X4179778Y12848506D01*
X4498606Y13099995D01*
X4912886Y14017278D01*
X4923070Y14340313D01*
X5010086Y14210086D01*
X6410086Y12810086D01*
X6543099Y12721209D01*
X6700000Y12690000D01*
X11330172Y12690000D01*
X12533708Y11486465D01*
X12325000Y11486465D01*
X12202709Y11463454D01*
X12199339Y11461285D01*
X12075000Y11486465D01*
X11825000Y11486465D01*
X11702709Y11463454D01*
X11694045Y11457879D01*
X11640641Y11480000D01*
X11552500Y11480000D01*
X11470000Y11397500D01*
X11470000Y10820000D01*
X11488535Y10820000D01*
X11488535Y10780000D01*
X11470000Y10780000D01*
X11470000Y10760000D01*
X11430000Y10760000D01*
X11430000Y10780000D01*
X10970000Y10780000D01*
X10970000Y10760000D01*
X10930000Y10760000D01*
X10930000Y10780000D01*
X10577500Y10780000D01*
X10495000Y10697500D01*
X10495000Y10611465D01*
X10194285Y10611465D01*
X10134399Y10756400D01*
X9957332Y10933776D01*
X9725864Y11029890D01*
X9475235Y11030109D01*
X9243600Y10934399D01*
X9205000Y10895866D01*
X9205000Y11215641D01*
X10495000Y11215641D01*
X10495000Y10902500D01*
X10577500Y10820000D01*
X10930000Y10820000D01*
X10930000Y11397500D01*
X10970000Y11397500D01*
X10970000Y10820000D01*
X11430000Y10820000D01*
X11430000Y11397500D01*
X11347500Y11480000D01*
X11259359Y11480000D01*
X11200000Y11455412D01*
X11140641Y11480000D01*
X11052500Y11480000D01*
X10970000Y11397500D01*
X10930000Y11397500D01*
X10847500Y11480000D01*
X10759359Y11480000D01*
X10638070Y11429760D01*
X10545239Y11336930D01*
X10495000Y11215641D01*
X9205000Y11215641D01*
X9205000Y11465641D01*
X9154761Y11586930D01*
X9061930Y11679760D01*
X8940641Y11730000D01*
X8402500Y11730000D01*
X8320000Y11647500D01*
X8320000Y10720000D01*
X8340000Y10720000D01*
X8340000Y10680000D01*
X8320000Y10680000D01*
X8320000Y10660000D01*
X8280000Y10660000D01*
X8280000Y10680000D01*
X8260000Y10680000D01*
X8260000Y10720000D01*
X8280000Y10720000D01*
X8280000Y11647500D01*
X8197500Y11730000D01*
X7659359Y11730000D01*
X7538070Y11679760D01*
X7502360Y11644050D01*
X7405904Y11709956D01*
X7275000Y11736465D01*
X6125000Y11736465D01*
X6002709Y11713454D01*
X5890393Y11641181D01*
X5815044Y11530904D01*
X5788535Y11400000D01*
X5788535Y11286415D01*
X5680904Y11359956D01*
X5550000Y11386465D01*
X5050000Y11386465D01*
X4927709Y11363454D01*
X4867968Y11325012D01*
X4929890Y11474136D01*
X4930109Y11724765D01*
X4834399Y11956400D01*
X4657332Y12133776D01*
X4425864Y12229890D01*
X4175235Y12230109D01*
X3943600Y12134399D01*
X3766224Y11957332D01*
X3682816Y11756464D01*
X3565641Y11805000D01*
X2102500Y11805000D01*
X2020000Y11722500D01*
X2020000Y10445000D01*
X2040000Y10445000D01*
X2040000Y10405000D01*
X2020000Y10405000D01*
X2020000Y9127500D01*
X2102500Y9045000D01*
X3565641Y9045000D01*
X3686930Y9095240D01*
X3779761Y9188070D01*
X3781095Y9191291D01*
X3825233Y9125233D01*
X4339002Y8611465D01*
X4100000Y8611465D01*
X3977709Y8588454D01*
X3865393Y8516181D01*
X3790044Y8405904D01*
X3763535Y8275000D01*
X3763535Y7475000D01*
X3786546Y7352709D01*
X3854858Y7246549D01*
X3820239Y7211930D01*
X3770000Y7090641D01*
X3770000Y6727500D01*
X3852500Y6645000D01*
X4880000Y6645000D01*
X4880000Y6665000D01*
X4920000Y6665000D01*
X4920000Y6645000D01*
X5947500Y6645000D01*
X6030000Y6727500D01*
X6030000Y7090641D01*
X5979761Y7211930D01*
X5944051Y7247640D01*
X6009956Y7344096D01*
X6036465Y7475000D01*
X6036465Y7479483D01*
X6059359Y7470000D01*
X6342516Y7470000D01*
X6320000Y7415641D01*
X6320000Y7202500D01*
X6402500Y7120000D01*
X6930000Y7120000D01*
X6930000Y7140000D01*
X6970000Y7140000D01*
X6970000Y7120000D01*
X6990000Y7120000D01*
X6990000Y7080000D01*
X6970000Y7080000D01*
X6970000Y7060000D01*
X6930000Y7060000D01*
X6930000Y7080000D01*
X6402500Y7080000D01*
X6320000Y6997500D01*
X6320000Y6784359D01*
X6370240Y6663070D01*
X6463070Y6570239D01*
X6584359Y6520000D01*
X6847500Y6520000D01*
X6856670Y6529170D01*
X6820000Y6440641D01*
X6820000Y6102500D01*
X6902500Y6020000D01*
X7530000Y6020000D01*
X7530000Y6040000D01*
X7570000Y6040000D01*
X7570000Y6020000D01*
X7590000Y6020000D01*
X7590000Y5980000D01*
X7570000Y5980000D01*
X7570000Y5377500D01*
X7652500Y5295000D01*
X7915023Y5295000D01*
X7915601Y5293600D01*
X8092668Y5116224D01*
X8151537Y5091779D01*
X8120000Y5015641D01*
X8120000Y4752500D01*
X8202500Y4670000D01*
X8680000Y4670000D01*
X8680000Y4690000D01*
X8720000Y4690000D01*
X8720000Y4670000D01*
X8740000Y4670000D01*
X8740000Y4630000D01*
X8720000Y4630000D01*
X8720000Y4610000D01*
X8680000Y4610000D01*
X8680000Y4630000D01*
X8202500Y4630000D01*
X8120000Y4547500D01*
X8120000Y4284359D01*
X8170239Y4163070D01*
X8231661Y4101649D01*
X8215393Y4091181D01*
X8140044Y3980904D01*
X8138874Y3975129D01*
X8120848Y3963084D01*
X8071005Y3940592D01*
X8056108Y3929951D01*
X7875235Y3930109D01*
X7643600Y3834399D01*
X7466224Y3657332D01*
X7370110Y3425864D01*
X7369891Y3175235D01*
X7465601Y2943600D01*
X7642668Y2766224D01*
X7874136Y2670110D01*
X8124765Y2669891D01*
X8356400Y2765601D01*
X8504592Y2913535D01*
X8950000Y2913535D01*
X9072291Y2936546D01*
X9184607Y3008819D01*
X9189268Y3015641D01*
X10120000Y3015641D01*
X10120000Y2752500D01*
X10202500Y2670000D01*
X10680000Y2670000D01*
X10680000Y3197500D01*
X10597500Y3280000D01*
X10384359Y3280000D01*
X10263070Y3229760D01*
X10170239Y3136930D01*
X10120000Y3015641D01*
X9189268Y3015641D01*
X9226410Y3070000D01*
X9350000Y3070000D01*
X9533688Y3106538D01*
X9689411Y3210589D01*
X10098823Y3620000D01*
X10488986Y3620000D01*
X10542668Y3566224D01*
X10774136Y3470110D01*
X10851135Y3470043D01*
X11059236Y3261942D01*
X11015641Y3280000D01*
X10802500Y3280000D01*
X10720000Y3197500D01*
X10720000Y2670000D01*
X11197500Y2670000D01*
X11280000Y2752500D01*
X11280000Y3015641D01*
X11229761Y3136930D01*
X11197750Y3168941D01*
X11216312Y3156538D01*
X11400000Y3120000D01*
X11995000Y3120000D01*
X11995000Y2888467D01*
X11191156Y2084624D01*
X11167487Y2100797D01*
X11229761Y2163070D01*
X11280000Y2284359D01*
X11280000Y2547500D01*
X11197500Y2630000D01*
X10720000Y2630000D01*
X10720000Y2610000D01*
X10680000Y2610000D01*
X10680000Y2630000D01*
X10202500Y2630000D01*
X10120000Y2547500D01*
X10120000Y2284359D01*
X10170239Y2163070D01*
X10231661Y2101649D01*
X10215393Y2091181D01*
X10140044Y1980904D01*
X10113535Y1850000D01*
X10113535Y1366293D01*
X9489914Y1989914D01*
X9356901Y2078791D01*
X9200000Y2110000D01*
X9180892Y2110000D01*
X9057332Y2233776D01*
X8825864Y2329890D01*
X8629830Y2330061D01*
X8573759Y2367527D01*
X8563454Y2422291D01*
X8491181Y2534607D01*
X8380904Y2609956D01*
X8250000Y2636465D01*
X7850000Y2636465D01*
X7727709Y2613454D01*
X7615393Y2541181D01*
X7600745Y2519743D01*
X7591181Y2534607D01*
X7480904Y2609956D01*
X7350000Y2636465D01*
X6950000Y2636465D01*
X6827709Y2613454D01*
X6744458Y2559884D01*
X6575864Y2629890D01*
X6325235Y2630109D01*
X6093600Y2534399D01*
X5916224Y2357332D01*
X5895728Y2307973D01*
X5834399Y2456400D01*
X5657332Y2633776D01*
X5425864Y2729890D01*
X5175235Y2730109D01*
X4943600Y2634399D01*
X4839019Y2530000D01*
X4700000Y2530000D01*
X4535446Y2497268D01*
X4474283Y2456400D01*
X4395944Y2404056D01*
X4045944Y2054056D01*
X3986513Y1965111D01*
X3977709Y1963454D01*
X3865393Y1891181D01*
X3830000Y1839382D01*
X3830000Y2690641D01*
X3779761Y2811930D01*
X3686930Y2904760D01*
X3565641Y2955000D01*
X2102500Y2955000D01*
X2020000Y2872500D01*
X2020000Y1595000D01*
X2040000Y1595000D01*
X2040000Y1555000D01*
X2020000Y1555000D01*
X2020000Y1535000D01*
X1980000Y1535000D01*
X1980000Y1555000D01*
X1960000Y1555000D01*
X1960000Y1595000D01*
X1980000Y1595000D01*
X1980000Y2872500D01*
X1897500Y2955000D01*
X434359Y2955000D01*
X380000Y2932484D01*
X380000Y5275235D01*
X1969891Y5275235D01*
X2065601Y5043600D01*
X2242668Y4866224D01*
X2474136Y4770110D01*
X2724765Y4769891D01*
X2956400Y4865601D01*
X3045955Y4955000D01*
X3767298Y4955000D01*
X3786546Y4852709D01*
X3853462Y4748719D01*
X3790044Y4655904D01*
X3767585Y4545000D01*
X3739109Y4545000D01*
X3734399Y4556400D01*
X3557332Y4733776D01*
X3325864Y4829890D01*
X3075235Y4830109D01*
X2843600Y4734399D01*
X2666224Y4557332D01*
X2570110Y4325864D01*
X2569891Y4075235D01*
X2665601Y3843600D01*
X2842668Y3666224D01*
X3074136Y3570110D01*
X3324765Y3569891D01*
X3556400Y3665601D01*
X3595868Y3705000D01*
X3767298Y3705000D01*
X3786546Y3602709D01*
X3858819Y3490393D01*
X3969096Y3415044D01*
X4100000Y3388535D01*
X5700000Y3388535D01*
X5822291Y3411546D01*
X5934607Y3483819D01*
X6009956Y3594096D01*
X6036465Y3725000D01*
X6036465Y4525000D01*
X6013454Y4647291D01*
X5946538Y4751281D01*
X6009956Y4844096D01*
X6036465Y4975000D01*
X6036465Y5775000D01*
X6013454Y5897291D01*
X6013320Y5897500D01*
X6820000Y5897500D01*
X6820000Y5559359D01*
X6870240Y5438070D01*
X6963070Y5345239D01*
X7084359Y5295000D01*
X7447500Y5295000D01*
X7530000Y5377500D01*
X7530000Y5980000D01*
X6902500Y5980000D01*
X6820000Y5897500D01*
X6013320Y5897500D01*
X5945142Y6003451D01*
X5979761Y6038070D01*
X6030000Y6159359D01*
X6030000Y6522500D01*
X5947500Y6605000D01*
X4920000Y6605000D01*
X4920000Y6585000D01*
X4880000Y6585000D01*
X4880000Y6605000D01*
X3852500Y6605000D01*
X3770000Y6522500D01*
X3770000Y6159359D01*
X3820239Y6038070D01*
X3855949Y6002360D01*
X3790044Y5905904D01*
X3767585Y5795000D01*
X3095866Y5795000D01*
X2957332Y5933776D01*
X2725864Y6029890D01*
X2475235Y6030109D01*
X2243600Y5934399D01*
X2066224Y5757332D01*
X1970110Y5525864D01*
X1969891Y5275235D01*
X380000Y5275235D01*
X380000Y9067516D01*
X434359Y9045000D01*
X1897500Y9045000D01*
X1980000Y9127500D01*
X1980000Y10405000D01*
X1960000Y10405000D01*
X1960000Y10445000D01*
X1980000Y10445000D01*
X1980000Y11722500D01*
X1897500Y11805000D01*
X434359Y11805000D01*
X380000Y11782484D01*
X380000Y12820222D01*
X648506Y12820222D01*
X899995Y12501394D01*
X1817278Y12087114D01*
X2823276Y12055398D01*
X3764833Y12411075D01*
X3900005Y12501394D01*
X4151494Y12820222D01*
X2400000Y14571716D01*
X648506Y12820222D01*
X380000Y12820222D01*
X380000Y13037991D01*
X620222Y12848506D01*
X2371716Y14600000D01*
X2357574Y14614142D01*
X2385858Y14642426D01*
X2400000Y14628284D01*
X4151494Y16379778D01*
X3962009Y16620000D01*
X4392399Y16620000D01*
X4384955Y16612569D01*
G36*
X15069891Y5975235D02*
X15165601Y5743600D01*
X15220000Y5689106D01*
X15220000Y4998822D01*
X15080051Y4858873D01*
X15080109Y4924765D01*
X14984399Y5156400D01*
X14807332Y5333776D01*
X14740697Y5361445D01*
X14761930Y5370240D01*
X14854761Y5463070D01*
X14905000Y5584359D01*
X14905000Y5897500D01*
X14822500Y5980000D01*
X14470000Y5980000D01*
X14470000Y5960000D01*
X14430000Y5960000D01*
X14430000Y5980000D01*
X14411465Y5980000D01*
X14411465Y6020000D01*
X14430000Y6020000D01*
X14430000Y6040000D01*
X14470000Y6040000D01*
X14470000Y6020000D01*
X14822500Y6020000D01*
X14905000Y6102500D01*
X14905000Y6188535D01*
X15070077Y6188535D01*
X15069891Y5975235D01*
X15069891Y5975235D01*
G37*
X15069891Y5975235D02*
X15165601Y5743600D01*
X15220000Y5689106D01*
X15220000Y4998822D01*
X15080051Y4858873D01*
X15080109Y4924765D01*
X14984399Y5156400D01*
X14807332Y5333776D01*
X14740697Y5361445D01*
X14761930Y5370240D01*
X14854761Y5463070D01*
X14905000Y5584359D01*
X14905000Y5897500D01*
X14822500Y5980000D01*
X14470000Y5980000D01*
X14470000Y5960000D01*
X14430000Y5960000D01*
X14430000Y5980000D01*
X14411465Y5980000D01*
X14411465Y6020000D01*
X14430000Y6020000D01*
X14430000Y6040000D01*
X14470000Y6040000D01*
X14470000Y6020000D01*
X14822500Y6020000D01*
X14905000Y6102500D01*
X14905000Y6188535D01*
X15070077Y6188535D01*
X15069891Y5975235D01*
G36*
X17920000Y5395000D02*
X17940000Y5395000D01*
X17940000Y5355000D01*
X17920000Y5355000D01*
X17920000Y5335000D01*
X17880000Y5335000D01*
X17880000Y5355000D01*
X17860000Y5355000D01*
X17860000Y5395000D01*
X17880000Y5395000D01*
X17880000Y5415000D01*
X17920000Y5415000D01*
X17920000Y5395000D01*
X17920000Y5395000D01*
G37*
X17920000Y5395000D02*
X17940000Y5395000D01*
X17940000Y5355000D01*
X17920000Y5355000D01*
X17920000Y5335000D01*
X17880000Y5335000D01*
X17880000Y5355000D01*
X17860000Y5355000D01*
X17860000Y5395000D01*
X17880000Y5395000D01*
X17880000Y5415000D01*
X17920000Y5415000D01*
X17920000Y5395000D01*
G36*
X11857500Y9282500D02*
X13542500Y9282500D01*
X13542500Y9302500D01*
X13582500Y9302500D01*
X13582500Y9282500D01*
X13602500Y9282500D01*
X13602500Y9242500D01*
X13582500Y9242500D01*
X13582500Y7557500D01*
X13602500Y7557500D01*
X13602500Y7517500D01*
X13582500Y7517500D01*
X13582500Y7497500D01*
X13542500Y7497500D01*
X13542500Y7517500D01*
X11857500Y7517500D01*
X11857500Y7497500D01*
X11817500Y7497500D01*
X11817500Y7517500D01*
X11797500Y7517500D01*
X11797500Y7557500D01*
X11817500Y7557500D01*
X11817500Y9242500D01*
X11857500Y9242500D01*
X11857500Y7557500D01*
X13542500Y7557500D01*
X13542500Y9242500D01*
X11857500Y9242500D01*
X11817500Y9242500D01*
X11797500Y9242500D01*
X11797500Y9282500D01*
X11817500Y9282500D01*
X11817500Y9302500D01*
X11857500Y9302500D01*
X11857500Y9282500D01*
X11857500Y9282500D01*
G37*
X11857500Y9282500D02*
X13542500Y9282500D01*
X13542500Y9302500D01*
X13582500Y9302500D01*
X13582500Y9282500D01*
X13602500Y9282500D01*
X13602500Y9242500D01*
X13582500Y9242500D01*
X13582500Y7557500D01*
X13602500Y7557500D01*
X13602500Y7517500D01*
X13582500Y7517500D01*
X13582500Y7497500D01*
X13542500Y7497500D01*
X13542500Y7517500D01*
X11857500Y7517500D01*
X11857500Y7497500D01*
X11817500Y7497500D01*
X11817500Y7517500D01*
X11797500Y7517500D01*
X11797500Y7557500D01*
X11817500Y7557500D01*
X11817500Y9242500D01*
X11857500Y9242500D01*
X11857500Y7557500D01*
X13542500Y7557500D01*
X13542500Y9242500D01*
X11857500Y9242500D01*
X11817500Y9242500D01*
X11797500Y9242500D01*
X11797500Y9282500D01*
X11817500Y9282500D01*
X11817500Y9302500D01*
X11857500Y9302500D01*
X11857500Y9282500D01*
G36*
X10320000Y7670000D02*
X10340000Y7670000D01*
X10340000Y7630000D01*
X10320000Y7630000D01*
X10320000Y7611465D01*
X10280000Y7611465D01*
X10280000Y7630000D01*
X10260000Y7630000D01*
X10260000Y7670000D01*
X10280000Y7670000D01*
X10280000Y7688535D01*
X10320000Y7688535D01*
X10320000Y7670000D01*
X10320000Y7670000D01*
G37*
X10320000Y7670000D02*
X10340000Y7670000D01*
X10340000Y7630000D01*
X10320000Y7630000D01*
X10320000Y7611465D01*
X10280000Y7611465D01*
X10280000Y7630000D01*
X10260000Y7630000D01*
X10260000Y7670000D01*
X10280000Y7670000D01*
X10280000Y7688535D01*
X10320000Y7688535D01*
X10320000Y7670000D01*
G36*
X17270000Y9420000D02*
X17290000Y9420000D01*
X17290000Y9380000D01*
X17270000Y9380000D01*
X17270000Y8902500D01*
X17352500Y8820000D01*
X17615641Y8820000D01*
X17736930Y8870239D01*
X17798351Y8931661D01*
X17808819Y8915393D01*
X17919096Y8840044D01*
X18050000Y8813535D01*
X18292997Y8813535D01*
X18495068Y8611465D01*
X17100000Y8611465D01*
X16977709Y8588454D01*
X16865393Y8516181D01*
X16790044Y8405904D01*
X16770489Y8309339D01*
X16639914Y8439914D01*
X16506901Y8528791D01*
X16350000Y8560000D01*
X16339828Y8560000D01*
X16706569Y8926741D01*
X16763070Y8870239D01*
X16884359Y8820000D01*
X17147500Y8820000D01*
X17230000Y8902500D01*
X17230000Y9380000D01*
X17210000Y9380000D01*
X17210000Y9420000D01*
X17230000Y9420000D01*
X17230000Y9440000D01*
X17270000Y9440000D01*
X17270000Y9420000D01*
X17270000Y9420000D01*
G37*
X17270000Y9420000D02*
X17290000Y9420000D01*
X17290000Y9380000D01*
X17270000Y9380000D01*
X17270000Y8902500D01*
X17352500Y8820000D01*
X17615641Y8820000D01*
X17736930Y8870239D01*
X17798351Y8931661D01*
X17808819Y8915393D01*
X17919096Y8840044D01*
X18050000Y8813535D01*
X18292997Y8813535D01*
X18495068Y8611465D01*
X17100000Y8611465D01*
X16977709Y8588454D01*
X16865393Y8516181D01*
X16790044Y8405904D01*
X16770489Y8309339D01*
X16639914Y8439914D01*
X16506901Y8528791D01*
X16350000Y8560000D01*
X16339828Y8560000D01*
X16706569Y8926741D01*
X16763070Y8870239D01*
X16884359Y8820000D01*
X17147500Y8820000D01*
X17230000Y8902500D01*
X17230000Y9380000D01*
X17210000Y9380000D01*
X17210000Y9420000D01*
X17230000Y9420000D01*
X17230000Y9440000D01*
X17270000Y9440000D01*
X17270000Y9420000D01*
G36*
X5883819Y9765393D02*
X5994096Y9690044D01*
X6125000Y9663535D01*
X6956637Y9663535D01*
X7090172Y9530000D01*
X6802500Y9530000D01*
X6720000Y9447500D01*
X6720000Y8520000D01*
X6740000Y8520000D01*
X6740000Y8480000D01*
X6720000Y8480000D01*
X6720000Y8460000D01*
X6680000Y8460000D01*
X6680000Y8480000D01*
X6660000Y8480000D01*
X6660000Y8520000D01*
X6680000Y8520000D01*
X6680000Y9447500D01*
X6597500Y9530000D01*
X6059359Y9530000D01*
X5938070Y9479760D01*
X5880000Y9421691D01*
X5880000Y9547500D01*
X5797500Y9630000D01*
X5320000Y9630000D01*
X5320000Y9610000D01*
X5280000Y9610000D01*
X5280000Y9630000D01*
X5260000Y9630000D01*
X5260000Y9670000D01*
X5280000Y9670000D01*
X5280000Y9690000D01*
X5320000Y9690000D01*
X5320000Y9670000D01*
X5797500Y9670000D01*
X5880000Y9752500D01*
X5880000Y9771328D01*
X5883819Y9765393D01*
X5883819Y9765393D01*
G37*
X5883819Y9765393D02*
X5994096Y9690044D01*
X6125000Y9663535D01*
X6956637Y9663535D01*
X7090172Y9530000D01*
X6802500Y9530000D01*
X6720000Y9447500D01*
X6720000Y8520000D01*
X6740000Y8520000D01*
X6740000Y8480000D01*
X6720000Y8480000D01*
X6720000Y8460000D01*
X6680000Y8460000D01*
X6680000Y8480000D01*
X6660000Y8480000D01*
X6660000Y8520000D01*
X6680000Y8520000D01*
X6680000Y9447500D01*
X6597500Y9530000D01*
X6059359Y9530000D01*
X5938070Y9479760D01*
X5880000Y9421691D01*
X5880000Y9547500D01*
X5797500Y9630000D01*
X5320000Y9630000D01*
X5320000Y9610000D01*
X5280000Y9610000D01*
X5280000Y9630000D01*
X5260000Y9630000D01*
X5260000Y9670000D01*
X5280000Y9670000D01*
X5280000Y9690000D01*
X5320000Y9690000D01*
X5320000Y9670000D01*
X5797500Y9670000D01*
X5880000Y9752500D01*
X5880000Y9771328D01*
X5883819Y9765393D01*
G36*
X14669043Y16602463D02*
X14593981Y16434304D01*
X15300000Y15728284D01*
X16006019Y16434304D01*
X15930957Y16602463D01*
X15891024Y16620000D01*
X16213535Y16620000D01*
X16213535Y16314387D01*
X16202463Y16330957D01*
X16034304Y16406019D01*
X15328284Y15700000D01*
X16034304Y14993981D01*
X16202463Y15069043D01*
X16234051Y15140970D01*
X16236546Y15127709D01*
X16308819Y15015393D01*
X16419096Y14940044D01*
X16550000Y14913535D01*
X16870000Y14913535D01*
X16870000Y13200000D01*
X16902732Y13035446D01*
X16995944Y12895944D01*
X17070000Y12821888D01*
X17070000Y12611563D01*
X17025864Y12629890D01*
X16775235Y12630109D01*
X16543600Y12534399D01*
X16366224Y12357332D01*
X16270110Y12125864D01*
X16269891Y11875235D01*
X16365601Y11643600D01*
X16490000Y11518984D01*
X16490000Y11100000D01*
X16503942Y11029909D01*
X16275235Y11030109D01*
X16209420Y11002915D01*
X16178791Y11156900D01*
X16089914Y11289914D01*
X15655796Y11724032D01*
X15756400Y11765601D01*
X15933776Y11942668D01*
X16029890Y12174136D01*
X16030109Y12424765D01*
X15934399Y12656400D01*
X15757332Y12833776D01*
X15525864Y12929890D01*
X15349783Y12930044D01*
X13710000Y14569828D01*
X13710000Y14965696D01*
X14593981Y14965696D01*
X14669043Y14797537D01*
X15062430Y14624776D01*
X15491984Y14615708D01*
X15892312Y14771714D01*
X15930957Y14797537D01*
X16006019Y14965696D01*
X15300000Y15671716D01*
X14593981Y14965696D01*
X13710000Y14965696D01*
X13710000Y15000847D01*
X13910971Y15083887D01*
X14215045Y15387431D01*
X14239628Y15446634D01*
X14371714Y15107688D01*
X14397537Y15069043D01*
X14565696Y14993981D01*
X15271716Y15700000D01*
X14565696Y16406019D01*
X14397537Y16330957D01*
X14363674Y16253848D01*
X14216113Y16610971D01*
X14207100Y16620000D01*
X14695288Y16620000D01*
X14669043Y16602463D01*
X14669043Y16602463D01*
G37*
X14669043Y16602463D02*
X14593981Y16434304D01*
X15300000Y15728284D01*
X16006019Y16434304D01*
X15930957Y16602463D01*
X15891024Y16620000D01*
X16213535Y16620000D01*
X16213535Y16314387D01*
X16202463Y16330957D01*
X16034304Y16406019D01*
X15328284Y15700000D01*
X16034304Y14993981D01*
X16202463Y15069043D01*
X16234051Y15140970D01*
X16236546Y15127709D01*
X16308819Y15015393D01*
X16419096Y14940044D01*
X16550000Y14913535D01*
X16870000Y14913535D01*
X16870000Y13200000D01*
X16902732Y13035446D01*
X16995944Y12895944D01*
X17070000Y12821888D01*
X17070000Y12611563D01*
X17025864Y12629890D01*
X16775235Y12630109D01*
X16543600Y12534399D01*
X16366224Y12357332D01*
X16270110Y12125864D01*
X16269891Y11875235D01*
X16365601Y11643600D01*
X16490000Y11518984D01*
X16490000Y11100000D01*
X16503942Y11029909D01*
X16275235Y11030109D01*
X16209420Y11002915D01*
X16178791Y11156900D01*
X16089914Y11289914D01*
X15655796Y11724032D01*
X15756400Y11765601D01*
X15933776Y11942668D01*
X16029890Y12174136D01*
X16030109Y12424765D01*
X15934399Y12656400D01*
X15757332Y12833776D01*
X15525864Y12929890D01*
X15349783Y12930044D01*
X13710000Y14569828D01*
X13710000Y14965696D01*
X14593981Y14965696D01*
X14669043Y14797537D01*
X15062430Y14624776D01*
X15491984Y14615708D01*
X15892312Y14771714D01*
X15930957Y14797537D01*
X16006019Y14965696D01*
X15300000Y15671716D01*
X14593981Y14965696D01*
X13710000Y14965696D01*
X13710000Y15000847D01*
X13910971Y15083887D01*
X14215045Y15387431D01*
X14239628Y15446634D01*
X14371714Y15107688D01*
X14397537Y15069043D01*
X14565696Y14993981D01*
X15271716Y15700000D01*
X14565696Y16406019D01*
X14397537Y16330957D01*
X14363674Y16253848D01*
X14216113Y16610971D01*
X14207100Y16620000D01*
X14695288Y16620000D01*
X14669043Y16602463D01*
M02*
